<?xml version="1.0" standalone="no"?>
<!DOCTYPE svg PUBLIC "-//W3C//DTD SVG 20010904//EN"
 "http://www.w3.org/TR/2001/REC-SVG-20010904/DTD/svg10.dtd">
<svg version="1.0" xmlns="http://www.w3.org/2000/svg"
 width="640.000000pt" height="288.000000pt" viewBox="0 0 640.000000 288.000000"
 preserveAspectRatio="xMidYMid meet">
<metadata>
Created by potrace 1.13, written by Peter Selinger 2001-2015
</metadata>
<g transform="translate(0.000000,288.000000) scale(0.100000,-0.100000)"
fill="#000000" stroke="none">
<path d="M3635 2868 c22 -6 42 -14 45 -17 10 -12 55 -11 78 1 17 9 25 9 30 1
4 -6 28 -14 54 -18 26 -4 55 -13 65 -20 12 -9 22 -10 35 -2 13 9 26 7 53 -6
39 -19 59 -22 35 -7 -10 7 -1 8 30 3 25 -4 54 -7 65 -6 11 1 58 4 105 8 101 7
462 14 472 9 5 -4 240 -12 358 -13 54 -1 141 21 188 47 23 13 42 26 42 28 0 2
-381 4 -847 3 -608 -1 -837 -4 -808 -11z"/>
<path d="M5382 2860 c-12 -12 -22 -25 -22 -30 0 -5 -7 -16 -16 -24 -11 -11
-12 -16 -3 -16 7 0 3 -10 -10 -24 -13 -14 -20 -29 -16 -35 3 -6 2 -11 -4 -11
-6 0 -8 -6 -5 -13 3 -8 -2 -20 -11 -27 -9 -7 -15 -8 -15 -2 0 6 4 12 10 14 6
2 6 8 0 18 -9 13 -11 13 -20 0 -7 -11 -10 -11 -10 -2 0 7 -5 10 -10 7 -6 -4
-8 -23 -5 -43 3 -24 2 -30 -3 -18 -8 17 -9 17 -25 -7 -9 -15 -17 -32 -17 -40
0 -7 -7 -22 -15 -33 -13 -16 -16 -17 -25 -4 -6 10 -10 11 -10 3 0 -7 -5 -13
-11 -13 -6 0 -9 6 -6 13 2 6 1 21 -4 32 -7 19 -8 19 -8 -2 -1 -12 -8 -28 -16
-37 -9 -8 -16 -18 -15 -21 1 -20 -1 -25 -11 -25 -6 0 -8 9 -4 21 5 15 4 19 -4
14 -8 -4 -10 1 -8 17 2 13 -1 36 -8 51 -11 27 -13 28 -28 12 -10 -9 -17 -30
-17 -46 0 -29 -14 -39 -23 -16 -3 6 -6 3 -6 -7 -1 -20 -15 -14 -17 7 0 7 -2
20 -2 31 -2 16 -4 16 -22 -5 -14 -16 -20 -19 -19 -9 3 36 0 41 -21 28 -11 -7
-20 -18 -20 -25 0 -6 -5 -13 -10 -15 -6 -2 -12 -13 -13 -26 0 -12 -5 -22 -9
-22 -4 0 -10 -20 -14 -45 -3 -25 -10 -45 -15 -45 -5 0 -7 19 -3 43 4 30 2 38
-5 26 -6 -9 -11 -32 -13 -52 -3 -57 -18 -50 -32 16 -7 30 -26 37 -26 8 0 -10
-11 -30 -25 -45 l-25 -27 0 27 c0 28 -12 26 -16 -3 -2 -9 -8 -36 -16 -59 -12
-44 -27 -58 -29 -29 -1 8 -3 20 -4 25 -1 6 -3 21 -4 35 -1 32 -21 33 -21 1 0
-14 -12 -37 -26 -53 -15 -16 -21 -29 -14 -31 7 -3 5 -11 -6 -23 -18 -20 -74
-27 -74 -9 0 6 7 10 15 10 20 0 19 16 -1 24 -13 5 -14 9 -4 21 12 15 6 35 -11
35 -5 0 -9 -7 -9 -15 0 -8 -4 -15 -9 -15 -5 0 -7 -10 -5 -22 3 -13 -2 -6 -11
14 -17 39 -45 43 -45 7 0 -10 -5 -19 -11 -19 -5 0 -8 -4 -4 -9 3 -5 0 -13 -6
-16 -5 -4 -8 -13 -5 -20 3 -8 -1 -18 -8 -24 -11 -9 -15 -4 -20 21 -6 29 -8 30
-22 16 -8 -8 -17 -24 -19 -34 -2 -10 -4 -21 -6 -24 -1 -3 -3 -9 -3 -15 -1 -5
-10 -22 -20 -37 -10 -16 -15 -35 -12 -46 4 -13 1 -22 -9 -26 -9 -3 -13 -10
-10 -16 3 -6 -4 -10 -18 -10 -25 0 -52 -22 -41 -33 4 -3 -6 -9 -21 -13 -21 -5
-31 -2 -40 10 -11 14 -14 15 -25 1 -7 -8 -18 -15 -24 -15 -14 0 -36 69 -36
113 0 18 -7 43 -16 56 -14 19 -22 22 -50 16 -40 -7 -119 -57 -128 -81 -3 -9
-6 -26 -6 -38 0 -13 -9 -31 -20 -41 -19 -17 -21 -17 -47 1 -16 10 -37 23 -48
29 -19 10 -47 53 -78 120 -8 17 -30 51 -51 78 -20 26 -36 55 -36 66 0 10 -20
61 -45 114 -34 74 -52 100 -75 112 -16 9 -30 21 -30 28 0 7 -26 38 -57 69 -53
52 -62 57 -103 56 -25 0 -72 9 -105 21 -33 11 -71 21 -85 21 -69 0 -152 -58
-190 -131 -30 -57 -95 -96 -122 -72 -42 37 -133 -32 -211 -162 -39 -63 -49
-73 -122 -112 -68 -37 -86 -42 -121 -38 -32 4 -51 -1 -87 -21 -26 -14 -51 -22
-57 -19 -6 4 -17 1 -25 -5 -8 -6 -19 -9 -25 -5 -5 3 -10 1 -10 -5 0 -7 -7 -10
-15 -7 -8 4 -17 2 -20 -3 -11 -18 -30 -10 -55 25 -32 44 -56 44 -77 1 -18 -39
-36 -49 -119 -66 -32 -7 -79 -23 -104 -35 -58 -29 -107 -40 -123 -26 -7 5 -28
12 -47 14 -19 2 -46 9 -59 16 -17 9 -26 10 -34 2 -16 -16 -57 -14 -57 3 0 20
-25 37 -44 30 -9 -4 -23 -18 -31 -33 -8 -14 -28 -41 -43 -59 l-29 -32 -59 13
c-40 10 -68 11 -84 5 -14 -5 -38 -7 -53 -4 -18 4 -42 -1 -65 -13 -85 -44 -147
-61 -232 -62 -98 -3 -149 11 -203 53 l-39 30 -75 -51 c-41 -28 -85 -51 -98
-51 -12 0 -28 -6 -34 -14 -7 -8 -23 -17 -37 -20 -13 -4 -45 -22 -70 -41 -25
-19 -54 -35 -64 -35 -9 0 -23 -7 -30 -15 -7 -8 -17 -15 -22 -15 -6 0 -23 -9
-39 -21 l-29 -20 0 -890 0 -889 1666 0 c916 0 1663 4 1660 8 -3 5 7 15 22 23
15 8 29 16 32 19 3 3 18 11 34 18 16 7 26 15 23 18 -3 4 -31 -7 -61 -24 -31
-17 -56 -27 -56 -23 0 11 125 72 141 68 8 -2 11 -2 7 0 -18 10 -5 19 28 20 20
0 41 6 47 13 9 10 8 12 -5 7 -9 -3 -19 0 -21 8 -7 16 1 25 22 25 9 0 22 9 29
20 7 11 17 20 24 20 7 0 3 -7 -8 -15 -10 -8 -14 -15 -8 -15 6 0 17 7 24 15 7
8 19 15 26 15 8 0 14 3 14 8 0 9 74 42 96 42 8 0 13 4 10 9 -4 5 7 12 24 16
17 4 28 10 25 15 -6 9 23 22 35 15 16 -10 55 12 55 31 0 13 15 26 43 39 23 11
42 25 42 32 0 7 6 13 13 13 16 0 53 37 45 45 -3 3 -17 -6 -32 -20 -15 -14 -32
-23 -37 -20 -5 3 -6 -1 -3 -10 4 -10 2 -14 -8 -10 -9 4 -25 -5 -39 -19 -24
-26 -46 -35 -33 -14 4 7 3 8 -5 4 -6 -4 -9 -11 -6 -16 3 -5 -9 -3 -25 3 -29
11 -30 13 -13 26 16 12 16 13 -7 7 -58 -15 -113 -19 -106 -8 4 7 -10 10 -46 7
l-53 -4 48 24 c27 13 54 22 62 19 7 -3 35 4 61 15 53 24 58 25 49 11 -4 -6 1
-7 11 -3 11 4 13 8 6 11 -7 2 -9 8 -6 13 9 14 -45 -1 -84 -24 -18 -11 -35 -17
-38 -14 -7 7 271 171 354 209 37 16 103 43 147 60 44 17 91 39 105 48 14 9 52
27 85 39 72 27 135 61 135 74 0 5 -11 2 -25 -7 -18 -12 -24 -13 -23 -4 3 14
85 55 185 93 37 14 78 40 103 64 48 47 43 51 -17 17 -39 -22 -84 -40 -129 -51
-10 -3 -59 -16 -108 -30 -50 -13 -92 -23 -94 -20 -2 2 16 9 39 15 24 6 73 22
109 36 36 15 89 35 117 46 30 12 50 25 46 31 -3 6 -1 7 6 3 17 -11 160 39 217
76 51 32 294 151 424 208 106 46 176 84 575 310 55 31 118 68 140 82 22 14 95
53 163 87 l122 63 0 55 0 55 -25 -16 c-14 -9 -25 -12 -25 -7 0 5 7 11 15 15 8
3 15 10 15 16 0 7 -6 7 -21 0 -11 -7 -23 -9 -26 -6 -3 3 11 13 31 22 20 10 36
24 36 31 0 14 -12 17 -24 6 -4 -5 -11 -8 -15 -8 -16 0 -91 -39 -91 -48 0 -5 7
-4 15 3 9 7 18 10 22 6 3 -3 2 -6 -4 -6 -6 0 -22 -12 -37 -26 -22 -23 -28 -25
-43 -13 -15 13 -15 12 -2 -8 13 -22 13 -22 34 -3 22 20 45 26 45 12 0 -13
-158 -92 -192 -96 -18 -2 -37 -11 -43 -20 -7 -9 -15 -13 -19 -9 -11 11 -96
-40 -96 -58 0 -21 -39 -56 -72 -64 -16 -4 -28 -10 -28 -14 0 -5 -19 -14 -42
-21 -24 -8 -75 -31 -114 -52 -39 -21 -78 -38 -88 -38 -9 0 -33 -7 -53 -15 -32
-13 -34 -17 -22 -33 13 -15 12 -16 -4 -3 -9 8 -20 11 -24 8 -3 -4 -13 -1 -21
6 -11 8 -14 8 -9 0 4 -6 1 -14 -5 -16 -7 -3 0 -6 16 -6 25 -1 27 -3 15 -17 -7
-9 -22 -14 -36 -11 -12 2 -20 1 -18 -3 6 -9 -55 -23 -102 -24 -17 0 -29 -4
-27 -8 3 -4 -2 -8 -10 -8 -9 0 -16 -5 -16 -12 0 -6 -3 -9 -6 -6 -3 3 -17 -5
-31 -18 -14 -13 -29 -21 -34 -18 -5 3 -6 -1 -4 -8 7 -17 -71 -62 -80 -47 -4 5
-13 5 -25 -1 -10 -5 -32 -10 -49 -10 -16 0 -31 -5 -33 -12 -3 -7 -7 -4 -12 7
-4 11 -4 16 0 12 4 -4 18 0 30 8 17 11 24 12 28 2 3 -8 8 -7 16 6 6 9 15 15
19 12 5 -2 17 5 27 17 19 20 19 21 -6 13 -14 -4 -31 -12 -38 -18 -8 -6 -26
-12 -40 -13 -15 -1 -39 -6 -53 -12 -15 -6 -30 -8 -33 -5 -3 3 -12 0 -20 -6 -8
-7 -27 -14 -42 -15 -16 -2 -28 -10 -30 -19 -2 -13 2 -14 32 -1 19 8 34 10 34
5 0 -5 -15 -15 -32 -22 -99 -37 -102 -38 -115 -27 -7 6 -13 6 -13 1 0 -5 -12
-9 -27 -10 -26 -2 -27 -1 -5 7 12 5 22 14 22 19 0 5 8 9 18 9 9 -1 28 2 42 6
24 8 24 8 5 -8 -11 -8 -15 -16 -9 -16 14 0 34 21 34 37 0 11 -6 11 -32 0 -18
-8 -40 -12 -47 -9 -12 4 59 33 129 53 8 2 17 7 20 10 3 3 26 17 52 31 26 14
44 28 41 32 -4 4 0 4 10 0 10 -4 17 -1 17 6 0 7 7 10 15 6 8 -3 14 -2 14 2 -3
18 2 26 10 14 7 -11 11 -11 23 2 9 8 18 13 21 10 10 -11 111 29 129 50 9 12
17 17 18 13 0 -11 80 34 80 45 0 5 4 7 10 3 5 -3 57 22 115 55 58 34 110 58
115 55 6 -3 10 1 10 9 0 15 12 21 33 17 5 -1 6 3 2 9 -5 9 8 14 19 8 2 -2 12
6 22 17 11 12 15 15 10 7 -7 -10 1 -8 27 4 20 10 37 22 37 27 0 5 -7 4 -15 -3
-9 -7 -18 -10 -21 -7 -5 5 32 30 46 32 3 0 23 12 45 26 72 46 146 89 153 89 4
0 18 10 32 23 14 12 36 28 50 34 14 7 36 22 50 33 14 11 34 22 45 24 23 4 97
38 105 47 10 12 113 54 140 58 6 1 10 125 10 351 l0 351 -215 -1 c-118 -1
-214 -4 -213 -8 2 -13 -14 -42 -24 -42 -5 0 -16 -7 -24 -15 -9 -8 -24 -15 -34
-15 -14 0 -18 -5 -13 -16 4 -11 1 -15 -13 -12 -11 2 -18 -2 -17 -8 1 -6 -8 -9
-21 -7 -16 3 -35 -5 -60 -27 -20 -18 -51 -36 -69 -39 -24 -6 -31 -12 -29 -27
3 -14 1 -16 -8 -8 -13 13 -53 7 -45 -6 5 -8 -42 -44 -57 -45 -5 0 -8 -4 -9
-10 -1 -16 -20 -35 -36 -35 -8 0 -11 5 -8 10 4 6 11 8 16 5 5 -4 9 -1 9 4 0
14 -11 13 -32 -3 -10 -7 -15 -16 -11 -19 3 -4 -2 -7 -11 -7 -12 0 -16 -5 -12
-16 3 -9 6 -18 6 -20 0 -3 10 2 22 10 12 9 27 16 33 16 9 -1 -43 -33 -55 -35
-8 -1 -63 -38 -78 -52 -7 -7 -19 -13 -25 -13 -7 0 -3 7 7 15 27 20 11 19 -20
-1 -14 -10 -23 -22 -20 -29 2 -7 -8 -18 -22 -24 -15 -7 -47 -24 -72 -39 -25
-15 -48 -27 -52 -27 -3 0 -10 -4 -15 -9 -5 -6 -2 -6 7 -1 11 6 11 4 -2 -11 -9
-10 -32 -28 -50 -38 -33 -19 -33 -19 -15 1 14 16 15 20 2 20 -8 0 -13 -2 -10
-5 7 -7 -84 -92 -98 -92 -7 0 -6 -4 3 -10 13 -9 13 -10 0 -11 -8 -1 -21 -1
-27 0 -7 1 -13 -5 -13 -12 0 -8 -7 -18 -16 -21 -14 -5 -15 -4 -4 9 18 21 6 30
-17 11 -51 -42 -114 -86 -123 -86 -5 0 -26 -12 -47 -26 -21 -14 -68 -41 -105
-60 -38 -19 -68 -36 -68 -39 0 -6 31 6 58 23 12 8 25 12 28 9 14 -13 -163 -89
-191 -81 -15 4 -17 3 -6 -5 12 -8 10 -11 -12 -16 -15 -4 -27 -14 -28 -24 0 -9
-3 -11 -5 -4 -4 9 -21 5 -61 -12 -30 -14 -61 -25 -68 -25 -7 0 -48 -16 -91
-36 -98 -44 -460 -224 -451 -224 10 0 120 40 140 51 28 15 139 49 163 49 12 0
41 11 65 24 68 36 141 73 174 86 17 7 38 16 47 21 10 5 22 9 27 9 6 0 37 16
70 35 32 19 65 35 72 35 23 0 151 52 210 86 32 18 68 35 81 39 21 7 65 27 259
118 44 20 85 33 97 30 11 -2 23 0 26 6 5 7 1 8 -11 4 -10 -3 -15 -3 -12 0 11
13 271 127 278 122 5 -2 23 7 42 21 19 14 50 32 69 40 19 8 46 22 60 32 14 9
33 17 42 19 27 4 79 39 71 47 -4 4 0 4 9 1 22 -9 81 22 72 38 -5 9 -4 9 5 1
10 -9 24 -6 57 13 25 14 47 23 50 20 3 -3 -4 -11 -17 -17 -35 -19 -140 -103
-134 -108 2 -3 11 1 19 7 8 7 20 10 27 6 6 -4 14 -3 18 2 3 6 30 23 59 37 30
15 51 30 48 33 -3 3 -12 0 -21 -7 -9 -7 -18 -10 -21 -7 -3 3 21 23 53 44 140
95 158 108 165 117 5 7 8 7 8 -1 0 -7 -16 -25 -36 -40 -20 -15 -50 -41 -68
-56 l-31 -28 33 12 c17 6 32 14 32 19 0 4 10 10 23 13 21 6 21 5 -3 -15 -14
-11 -45 -31 -70 -43 -25 -13 -82 -47 -127 -77 -93 -61 -124 -79 -208 -126 -33
-18 -49 -30 -35 -26 36 9 381 187 432 222 46 32 178 96 184 90 2 -2 -22 -17
-52 -33 -31 -16 -59 -35 -61 -42 -3 -7 -9 -10 -14 -7 -10 6 -53 -15 -46 -23 5
-4 -39 -29 -203 -115 -30 -16 -59 -33 -64 -39 -6 -5 -18 -9 -27 -9 -9 0 -20
-7 -23 -16 -3 -9 -3 -14 1 -12 5 2 36 18 71 36 87 46 78 31 -13 -19 -41 -22
-77 -45 -80 -49 -3 -5 -23 -7 -44 -5 -29 3 -44 -2 -62 -19 -28 -26 -64 -42
-53 -24 5 7 2 9 -9 5 -21 -8 -96 -19 -77 -11 8 4 25 15 37 26 12 11 26 17 33
13 6 -4 9 -1 8 7 -2 7 5 12 14 12 10 -1 16 1 15 5 -3 9 27 46 38 46 13 1 134
62 159 80 40 30 8 22 -76 -20 -92 -45 -107 -43 -31 5 25 16 52 26 61 23 13 -4
14 -3 4 5 -11 7 -7 14 18 32 40 29 34 35 -13 11 -20 -10 -34 -21 -30 -24 3 -4
-55 -36 -129 -72 -75 -36 -155 -80 -179 -98 -67 -49 -109 -77 -115 -77 -3 0
-26 -12 -51 -27 -39 -23 -43 -28 -27 -34 18 -7 18 -8 -1 -8 -11 -1 -54 -24
-95 -51 -41 -27 -82 -50 -90 -50 -12 -1 -12 -3 2 -11 13 -7 55 9 185 75 162
80 229 107 302 120 l34 6 -24 -18 c-13 -10 -37 -26 -54 -35 l-30 -18 30 25
c17 14 24 26 18 26 -24 0 -141 -51 -146 -64 -3 -7 -24 -18 -48 -26 -45 -14
-121 -58 -194 -109 -60 -43 -172 -101 -187 -98 -7 2 -9 2 -5 -1 5 -2 -15 -15
-45 -29 -55 -26 -92 -56 -80 -68 4 -4 -4 -5 -18 -2 -14 2 -19 2 -12 0 7 -3 10
-9 7 -14 -4 -5 -2 -9 3 -9 17 0 177 55 197 68 l20 13 -20 -5 c-22 -5 -97 -18
-105 -18 -3 0 -13 -4 -22 -9 -10 -5 -19 -5 -22 0 -3 5 6 12 22 16 15 4 74 29
130 56 68 33 111 48 124 43 12 -4 47 7 94 31 46 22 82 34 94 30 19 -6 127 41
117 51 -3 3 -28 -7 -57 -21 -29 -14 -55 -24 -58 -21 -3 3 29 22 71 41 76 35
98 52 55 41 -13 -3 -9 1 9 9 17 8 34 19 38 25 3 6 11 8 16 5 5 -4 26 10 47 29
20 20 40 36 44 36 3 0 19 11 35 23 15 13 37 26 48 29 11 3 29 9 40 13 l20 8
-20 -20 c-11 -11 -23 -19 -27 -16 -5 2 -8 -1 -8 -7 0 -6 -5 -8 -10 -5 -6 4 -9
1 -8 -6 2 -6 -16 -23 -38 -38 -23 -14 -53 -34 -67 -44 -14 -10 -37 -19 -51
-21 -14 -1 -29 -6 -34 -11 -4 -4 -1 -5 6 -1 6 4 12 3 12 -3 0 -6 21 1 48 15
26 14 60 27 75 28 16 1 32 7 35 13 4 6 26 20 50 32 24 12 52 31 62 41 11 11
20 17 20 13 1 -9 24 29 25 39 0 6 43 37 100 71 l30 18 -30 -26 c-16 -14 -42
-33 -57 -43 -16 -9 -28 -20 -28 -24 0 -15 -63 -78 -77 -78 -7 0 -13 -4 -13
-10 0 -9 -129 -75 -141 -73 -3 1 -6 -4 -6 -11 0 -11 10 -10 44 5 25 10 50 19
56 19 6 0 18 7 27 15 15 13 17 13 17 0 0 -8 -4 -15 -9 -15 -31 0 -258 -100
-258 -113 0 -5 -7 -4 -15 3 -11 9 -21 8 -49 -7 -110 -59 -138 -75 -134 -79 8
-7 79 26 126 57 49 33 52 34 52 17 0 -8 16 -14 42 -15 29 -1 37 2 27 8 -10 7
-6 8 13 3 14 -3 35 -1 46 5 13 7 23 8 27 1 3 -5 -7 -12 -22 -16 -15 -3 -48
-12 -72 -20 -56 -18 -61 -17 -36 3 l20 16 -20 -8 c-103 -39 -152 -56 -165 -58
-27 -4 -81 -38 -75 -47 3 -5 -21 -16 -52 -25 -80 -22 -85 -25 -33 -20 25 2 36
1 25 -3 -11 -4 -32 -15 -47 -25 -23 -16 -54 -24 -115 -29 -7 -1 -13 -5 -13
-10 0 -5 -4 -7 -9 -4 -11 7 -121 -25 -121 -35 0 -5 12 -4 26 1 40 16 63 10 26
-6 -20 -9 -43 -12 -55 -7 -27 9 -48 5 -62 -12 -5 -7 -32 -15 -59 -18 -28 -3
-55 -11 -60 -19 -6 -8 -22 -21 -36 -28 -21 -10 -23 -10 -12 1 25 26 10 27 -70
2 -95 -29 -103 -33 -241 -123 -38 -24 -74 -45 -80 -46 -7 -1 -25 -7 -42 -14
-16 -7 -45 -14 -63 -16 -38 -4 -54 -12 -47 -24 3 -5 1 -11 -4 -15 -9 -5 -7 32
2 41 1 2 29 10 61 18 32 9 92 32 132 53 85 42 123 75 53 45 -45 -20 -108 -37
-121 -34 -10 2 -165 -65 -206 -89 -19 -10 -38 -16 -44 -13 -7 5 -8 2 -3 -6 6
-10 4 -12 -9 -7 -14 5 -16 3 -11 -12 4 -12 0 -21 -11 -25 -14 -5 -15 -4 -4 9
10 13 9 15 -9 15 -23 0 -137 -55 -146 -71 -8 -13 -92 -49 -130 -56 -11 -2 -33
-13 -49 -25 -16 -11 -26 -16 -22 -9 11 17 -10 13 -52 -9 -56 -29 -73 -43 -42
-34 14 4 27 10 30 14 3 4 16 10 30 14 16 5 8 -4 -22 -23 -57 -37 -77 -64 -22
-31 44 27 53 31 111 55 23 10 46 14 52 11 6 -4 11 -2 11 3 0 6 6 10 13 9 6 -2
11 3 9 10 -1 6 5 12 14 12 11 0 14 -5 10 -16 -6 -15 -4 -15 18 0 14 9 31 16
38 16 15 0 210 97 218 108 3 5 22 18 43 31 l37 23 0 -26 c0 -34 -11 -37 219
73 24 12 46 20 48 17 5 -5 -79 -56 -92 -56 -5 0 -16 -7 -26 -16 -9 -8 -23 -17
-31 -18 -18 -3 -60 -26 -81 -45 -10 -9 -40 -24 -65 -33 -51 -18 -38 -24 18 -8
22 6 38 6 44 0 7 -7 3 -10 -9 -11 -38 -1 -58 -8 -73 -23 -13 -12 -13 -18 -2
-30 13 -16 6 -21 -26 -17 -6 1 -21 -10 -34 -24 -13 -14 -19 -25 -13 -25 6 0
14 6 17 13 3 6 5 3 3 -8 -1 -14 -11 -20 -30 -22 -24 -2 -27 0 -17 13 10 11 9
14 -8 14 -11 0 -22 -5 -24 -11 -3 -9 -20 -9 -61 -2 -32 6 -60 6 -63 2 -2 -4
-12 -5 -21 -2 -12 5 -15 2 -10 -9 4 -11 0 -15 -11 -13 -24 4 -42 -13 -35 -32
4 -11 2 -14 -5 -9 -7 4 -12 15 -12 24 -1 16 -2 16 -14 0 -13 -18 -32 -25 -22
-9 3 5 -1 11 -9 14 -10 4 -12 1 -8 -10 4 -11 2 -14 -5 -9 -7 4 -12 3 -12 -3 0
-5 5 -11 12 -13 8 -3 8 -7 2 -11 -6 -3 -22 0 -36 7 -17 9 -31 10 -42 4 -9 -5
-24 -7 -34 -5 -12 3 -8 8 16 17 17 6 32 16 32 22 0 5 4 7 9 3 5 -3 12 -1 16 4
9 16 -25 5 -88 -25 -40 -20 -57 -34 -54 -44 2 -9 -1 -20 -7 -26 -14 -13 -49
-9 -54 5 -5 14 -52 14 -52 0 0 -5 6 -7 13 -3 9 6 9 4 -1 -8 -10 -13 -10 -17 5
-23 15 -5 12 -9 -16 -21 -19 -8 -42 -13 -50 -11 -10 3 -8 5 5 6 12 0 24 7 27
15 8 20 -22 29 -39 12 -7 -8 -31 -20 -51 -27 -52 -16 -57 -20 -42 -30 12 -7
12 -9 0 -9 -8 0 -20 8 -28 18 -13 15 -14 14 -8 -12 5 -23 3 -27 -9 -23 -9 4
-28 0 -43 -8 -19 -10 -31 -11 -40 -3 -7 6 -13 6 -13 2 0 -5 -9 -15 -21 -22
-19 -12 -19 -11 -9 8 9 17 8 20 -9 20 -11 0 -28 -9 -39 -20 -17 -19 -18 -19
-19 0 -1 11 7 22 18 25 11 4 18 9 16 12 -3 2 -20 -3 -39 -13 -38 -20 -68 -25
-68 -11 0 5 -7 4 -15 -3 -8 -6 -13 -17 -12 -23 1 -7 -4 -11 -10 -10 -7 2 -13
-3 -13 -11 0 -8 -7 -17 -16 -20 -8 -3 -13 -2 -10 3 4 5 -3 7 -14 4 -18 -5 -25
-21 -21 -45 0 -5 -4 -8 -10 -8 -6 0 -9 6 -6 13 3 8 2 19 -2 25 -8 13 -51 4
-51 -10 0 -6 7 -8 15 -4 8 3 15 2 15 -3 0 -5 -17 -11 -37 -15 -28 -4 -41 -2
-49 9 -6 8 -20 15 -30 14 -11 0 -13 -3 -6 -6 6 -2 12 -9 12 -14 0 -4 -6 -6
-14 -3 -7 3 -16 -2 -19 -10 -7 -17 -47 -10 -44 8 1 6 -4 10 -12 8 -73 -16 -75
-16 -68 4 6 17 5 17 -5 3 -9 -10 -21 -13 -38 -8 -14 4 -18 7 -9 8 9 1 22 8 30
17 7 9 21 13 32 10 11 -3 36 2 57 10 20 8 41 14 46 13 15 -5 113 20 143 36 16
8 38 12 50 10 18 -3 93 27 111 45 3 3 16 6 29 8 13 2 44 13 70 25 25 12 55 24
66 28 19 7 19 7 -1 8 -12 1 -41 -6 -64 -14 -53 -19 -85 -20 -50 -2 29 15 124
47 139 47 6 0 11 -4 11 -10 0 -5 -8 -7 -17 -4 -16 5 -16 4 0 -6 12 -8 22 -8
30 -1 14 11 39 16 147 32 88 13 135 31 172 66 21 20 30 24 41 15 10 -9 14 -8
14 3 0 8 -4 12 -9 9 -4 -3 -8 -3 -8 0 0 3 24 19 53 36 35 20 46 30 32 31 -21
1 -17 3 120 60 39 16 86 43 105 59 l35 29 -28 -3 c-15 -2 -64 -22 -107 -45
-44 -23 -86 -41 -93 -40 -20 3 -77 -13 -77 -21 0 -5 10 -6 23 -3 17 4 19 3 7
-6 -8 -6 -15 -15 -15 -22 0 -16 -102 -66 -170 -83 -33 -7 -108 -30 -168 -49
-59 -19 -105 -31 -101 -26 8 14 -47 10 -91 -7 -22 -9 -53 -17 -70 -19 -16 -2
-56 -11 -88 -18 -49 -12 -57 -12 -53 -1 4 10 1 11 -12 5 -31 -17 -245 -82
-250 -76 -3 3 2 5 11 5 10 0 17 5 17 10 0 6 -10 8 -22 6 -13 -3 -41 -8 -63
-11 -21 -4 -44 -12 -50 -19 -5 -7 -23 -18 -40 -24 -28 -12 -29 -11 -10 4 19
15 18 15 -20 8 -22 -5 -52 -7 -67 -6 -16 0 -28 -2 -28 -6 0 -4 -11 -7 -24 -7
-14 1 -53 -2 -88 -6 -52 -6 -66 -5 -81 9 -18 16 -20 15 -37 -5 -12 -15 -32
-24 -61 -26 -24 -3 -57 -10 -74 -17 -37 -14 -92 -25 -84 -16 3 3 26 13 50 21
27 9 33 13 14 10 -53 -9 -69 -13 -97 -24 -15 -5 -37 -8 -50 -6 -13 3 -38 0
-56 -6 -19 -6 -61 -12 -95 -14 -34 -1 -82 -8 -107 -14 -88 -23 -86 -23 -70
-12 13 9 12 11 -5 11 -17 0 -18 2 -5 11 11 7 6 8 -19 4 -18 -4 -50 -8 -70 -10
-97 -7 -178 -18 -192 -26 -11 -5 -16 -3 -16 7 0 8 6 13 14 10 7 -3 13 -2 13 3
0 5 12 12 26 15 14 4 38 14 52 24 14 9 30 17 36 18 6 1 20 5 31 9 16 6 17 5 5
-4 -23 -16 4 -14 47 4 45 19 53 19 53 0 0 -18 -9 -19 97 5 112 26 137 36 129
55 -7 18 -5 18 28 1 l27 -14 -42 -16 c-23 -9 -39 -19 -37 -22 3 -2 17 0 32 6
15 5 39 10 52 10 14 0 22 4 19 10 -3 6 1 7 10 4 11 -5 18 0 21 13 5 17 17 21
62 26 31 3 80 15 107 27 28 12 73 24 100 27 28 2 66 8 85 13 164 43 253 71
300 94 l55 27 -106 -6 c-58 -4 -122 -10 -142 -15 -25 -5 -35 -4 -31 2 5 7 -8
8 -38 4 -37 -6 -55 -2 -93 16 l-46 23 -21 -25 c-11 -14 -17 -19 -13 -12 8 15
-60 -22 -84 -45 -15 -16 -16 -15 -19 13 -7 77 -2 74 -110 74 -53 0 -102 4
-107 8 -13 9 -13 27 -1 39 5 5 6 3 2 -5 -12 -21 42 -35 78 -21 17 7 34 18 38
23 5 7 11 6 18 -4 5 -8 10 -10 10 -5 0 6 19 10 43 10 23 0 47 3 52 7 22 15 66
28 60 18 -3 -6 -1 -10 4 -10 6 0 11 7 11 16 0 9 7 14 18 12 27 -4 62 34 57 63
-4 23 -4 24 11 4 16 -20 16 -19 9 4 -9 29 7 41 55 41 32 1 33 2 17 15 -18 13
-16 14 19 24 31 9 39 8 50 -7 10 -13 17 -15 30 -6 32 19 27 34 -18 53 -33 15
-38 20 -20 20 13 1 20 5 17 11 -7 11 5 17 47 24 15 2 28 1 30 -3 5 -13 87 -20
95 -8 4 6 0 8 -10 4 -10 -3 -17 -2 -17 3 0 6 7 10 16 10 14 0 14 3 4 15 -11
13 -7 15 24 15 22 0 35 4 31 10 -4 6 8 10 29 10 25 0 40 7 58 28 13 15 36 29
53 31 16 1 38 9 48 16 11 8 26 11 33 8 8 -3 14 1 14 11 0 9 -8 16 -21 16 -13
0 -18 4 -13 12 5 8 2 9 -10 5 -9 -4 -15 -3 -12 2 3 5 -1 14 -9 21 -8 7 -15 20
-15 28 0 13 2 13 13 -3 8 -10 19 -15 25 -11 7 4 12 2 12 -4 0 -6 4 -8 10 -5 5
3 15 -3 21 -14 7 -11 19 -17 27 -13 10 3 13 1 8 -6 -11 -18 7 -21 48 -7 22 8
43 12 48 9 4 -3 14 -2 21 3 6 4 17 8 22 9 6 1 27 9 48 18 28 12 37 13 37 4 1
-9 4 -9 13 2 7 8 22 14 35 12 24 -4 29 7 11 25 -7 7 -6 12 5 16 9 4 16 1 16
-6 0 -8 4 -6 10 3 8 12 10 10 11 -10 0 -24 1 -24 10 -5 12 24 49 51 49 35 0
-15 30 -12 31 3 0 6 4 3 9 -8 8 -18 9 -18 9 -2 1 10 5 16 10 13 5 -4 12 0 15
6 5 10 7 10 12 1 4 -10 9 -9 21 2 11 11 19 13 28 5 9 -8 14 -6 19 5 3 9 11 15
18 14 33 -4 41 1 28 16 -7 8 -11 15 -9 16 36 6 58 6 54 -2 -4 -5 -2 -9 4 -9 5
0 13 5 16 11 5 6 11 5 18 -5 11 -14 15 -14 42 0 16 8 33 20 37 27 5 8 9 6 14
-6 3 -9 10 -17 16 -17 5 0 7 4 4 9 -9 14 17 20 29 7 6 -6 9 -10 8 -8 -4 8 31
40 39 36 5 -3 8 -2 7 3 -3 17 2 29 21 53 l20 25 -10 -29 c-8 -22 -8 -32 2 -39
9 -6 8 -7 -4 -3 -19 6 -25 -9 -8 -19 16 -10 12 -25 -5 -19 -9 4 -15 0 -16 -7
0 -8 -4 -5 -9 6 -7 18 -10 16 -24 -17 -9 -21 -16 -44 -16 -52 0 -9 -6 -13 -13
-10 -9 3 -18 -10 -26 -38 -12 -37 -15 -40 -26 -25 -16 22 -22 21 -28 0 -4 -17
-5 -17 -6 0 -2 25 -21 21 -22 -5 -1 -17 -2 -19 -6 -5 -2 9 -9 17 -14 17 -5 0
-9 -8 -9 -17 0 -15 -2 -15 -9 -4 -7 11 -13 7 -24 -20 -9 -19 -16 -28 -16 -21
-2 23 -21 2 -21 -22 0 -26 -26 -31 -35 -8 -5 13 -9 11 -22 -7 -10 -15 -19 -19
-26 -12 -14 14 -41 -16 -44 -48 -1 -14 -7 -27 -13 -29 -5 -2 -10 -11 -11 -20
0 -13 -3 -12 -11 5 -6 12 -21 24 -33 27 -12 3 -25 14 -28 25 -3 12 -13 19 -31
19 -14 0 -26 -4 -26 -9 0 -4 -5 -20 -12 -36 -6 -15 -12 -35 -14 -43 -2 -8 -8
-16 -13 -18 -6 -2 -11 -13 -11 -25 0 -39 -12 -70 -21 -56 -4 7 -3 21 2 31 7
13 6 18 -3 18 -10 0 -10 2 0 9 10 6 8 10 -10 15 -19 5 -20 8 -8 16 10 6 11 10
3 10 -7 0 -10 7 -7 15 4 8 1 15 -5 15 -6 0 -11 -4 -11 -10 0 -5 -6 -7 -13 -4
-8 3 -18 -6 -25 -21 -13 -27 -32 -34 -32 -10 0 18 -5 18 -31 5 -10 -6 -19 -18
-19 -27 0 -13 -3 -13 -15 -3 -12 10 -15 9 -16 -6 -1 -11 -1 -23 0 -28 1 -5 -4
-4 -13 3 -12 10 -16 8 -22 -11 -5 -13 -9 -27 -10 -33 -1 -5 -3 -12 -4 -15 -1
-3 -4 -16 -6 -29 -5 -29 -14 -41 -14 -19 0 9 -7 19 -16 22 -8 3 -13 9 -11 13
3 5 1 17 -4 28 -7 18 -8 18 -8 -5 -1 -14 -5 -20 -9 -15 -19 26 -41 14 -57 -32
-36 -101 -35 -100 -50 -80 -12 17 -14 16 -28 -15 -17 -38 -27 -97 -17 -103 18
-11 222 43 412 109 387 134 533 197 633 271 72 54 120 74 127 54 3 -8 8 -7 18
2 8 8 24 16 34 17 11 2 92 39 180 82 89 43 186 90 216 104 30 15 62 30 70 35
48 27 256 123 264 121 5 -1 12 3 15 8 3 6 65 39 136 74 72 36 161 81 198 101
72 39 94 47 61 22 -22 -17 -12 -20 17 -4 11 5 17 14 14 19 -4 6 1 7 11 3 11
-4 15 -3 10 5 -4 7 34 32 101 68 60 31 147 79 194 105 94 53 114 60 78 28
l-24 -21 25 15 c14 8 25 21 25 28 0 8 14 21 30 29 17 9 63 35 103 58 40 24 77
40 84 36 7 -4 8 -3 4 4 -4 6 4 16 16 23 13 7 39 25 58 42 66 56 213 156 221
151 5 -3 19 0 31 6 19 9 19 7 -5 -14 -39 -36 -23 -32 24 5 22 17 36 36 33 41
-4 7 -2 8 5 4 7 -5 26 3 46 18 18 14 40 23 48 20 8 -3 18 -1 22 5 4 7 -1 9
-12 5 -11 -3 -6 5 12 20 l30 26 -31 0 c-30 0 -84 -40 -84 -61 0 -5 -8 -9 -19
-9 -10 0 -31 -9 -47 -21 -27 -20 -27 -19 2 7 18 16 47 42 65 57 l34 28 -131
-2 -131 -1 -17 -28 c-9 -16 -16 -32 -15 -37 4 -23 -4 -35 -10 -14 -10 36 -31
38 -31 3 0 -17 -9 -37 -21 -48 -22 -19 -22 -19 -10 4 8 15 8 22 1 22 -6 0 -8
5 -5 10 3 6 0 10 -7 10 -8 0 -6 5 5 11 17 10 17 12 -2 28 -26 22 -26 28 -3 34
9 3 -4 5 -29 6 -33 1 -51 -5 -67 -19z m-4140 -1544 c-3 -33 5 -33 30 -1 21 28
48 33 48 10 0 -15 -34 -38 -43 -29 -3 4 -5 -3 -4 -13 1 -19 4 -18 52 10 39 23
46 25 31 8 -10 -11 -28 -23 -39 -27 -15 -5 -16 -8 -6 -14 10 -7 7 -13 -12 -29
-13 -11 -20 -20 -15 -21 5 0 17 6 25 14 9 7 27 17 41 21 l25 8 -20 -23 c-20
-23 -19 -24 28 -5 10 4 17 3 17 -5 0 -7 7 -10 15 -6 10 3 15 -1 15 -12 1 -24
26 -56 35 -43 3 6 11 11 16 11 6 0 7 -4 4 -10 -3 -5 -1 -10 5 -10 8 0 10 -9 6
-26 -6 -24 -5 -26 17 -20 22 5 24 3 21 -25 -2 -18 0 -28 6 -24 6 3 10 -3 10
-14 0 -15 -9 -21 -40 -26 -52 -9 -63 0 -57 41 3 19 2 36 -2 38 -3 3 -40 6 -81
7 l-75 2 -3 -54 c-2 -39 0 -50 8 -39 5 8 10 24 11 35 1 11 4 4 8 -15 5 -26 2
-37 -9 -41 -8 -4 -18 -5 -23 -2 -4 2 -10 -2 -13 -11 -3 -8 -12 -12 -21 -9 -8
3 -29 -5 -46 -17 -18 -13 -26 -17 -19 -9 6 7 12 16 12 20 0 14 -137 -22 -150
-40 -5 -8 -104 -66 -107 -63 -7 4 -73 -30 -73 -37 0 -5 -10 -7 -22 -4 -19 4
-21 3 -8 -7 13 -10 12 -11 -3 -6 -10 3 -31 -1 -48 -9 -16 -9 -66 -19 -111 -23
-112 -10 -383 -5 -422 7 -17 6 -58 11 -91 12 -33 1 -68 6 -78 11 -11 5 -17 5
-17 -2 0 -5 -4 -10 -10 -10 -11 0 -13 30 -4 55 6 14 9 13 22 -6 l15 -22 19 23
c10 12 18 17 18 10 0 -9 10 -11 30 -6 17 3 30 1 30 -4 0 -6 -4 -10 -10 -10 -5
0 -10 -7 -10 -15 0 -10 10 -15 29 -15 16 0 37 -3 47 -7 15 -5 16 -2 10 30 -6
31 -4 36 9 31 11 -5 15 -16 13 -38 l-3 -31 93 -3 c92 -3 92 -3 92 21 0 14 7
28 16 31 14 6 15 4 4 -10 -12 -14 -10 -15 23 -9 22 4 37 3 37 -2 0 -11 122 -9
158 2 14 5 22 3 22 -4 0 -6 -5 -11 -12 -11 -6 0 -9 -2 -6 -5 3 -3 86 33 186
81 139 66 198 88 252 97 38 6 70 14 70 19 0 4 5 8 11 8 5 0 8 -4 5 -9 -4 -5 2
-7 12 -4 10 2 19 11 19 19 0 8 -6 13 -13 10 -8 -3 -11 0 -7 10 6 16 -10 18
-37 4 -22 -12 -73 -3 -64 11 3 5 16 6 30 3 20 -5 24 -3 24 16 0 19 -4 21 -25
16 -20 -5 -25 -3 -25 14 0 11 -5 20 -11 20 -6 0 -9 7 -5 15 3 8 2 14 -2 14
-20 -3 -30 3 -35 21 -3 11 -1 20 4 20 5 0 9 7 9 16 0 8 5 12 10 9 6 -3 10 -2
10 4 0 6 7 8 15 5 8 -4 15 -1 15 6 0 7 7 10 15 6 8 -3 15 -1 15 4 0 14 -58 12
-62 -2 -3 -7 -21 -12 -41 -11 -20 1 -37 -4 -37 -10 0 -6 -3 -7 -6 -4 -4 3 -15
2 -25 -4 -24 -12 -25 -1 -1 17 9 7 32 14 50 14 22 0 42 9 58 25 14 14 31 25
37 24 24 -3 37 1 37 12 0 5 -4 8 -9 5 -5 -3 -12 1 -15 10 -4 12 -1 14 14 9 10
-3 29 -1 41 6 18 9 19 13 8 21 -12 8 -11 9 1 5 10 -3 14 -14 12 -31z m3504 15
c-4 -5 0 -12 6 -14 7 -3 4 -6 -8 -6 -12 -1 -36 -6 -54 -13 -30 -10 -32 -12
-14 -19 18 -7 18 -8 -1 -8 -11 -1 -31 -8 -43 -17 -12 -8 -35 -18 -49 -20 -36
-7 -53 -22 -46 -40 5 -13 8 -13 22 -1 18 16 82 39 89 33 5 -5 -94 -57 -105
-55 -19 3 -34 -2 -29 -10 3 -5 -1 -14 -9 -21 -9 -8 -15 -8 -15 -2 0 6 -8 12
-17 14 -13 3 -10 7 14 18 17 8 34 22 36 32 6 22 -16 24 -33 3 -6 -8 -15 -14
-18 -12 -4 1 -34 -11 -66 -27 -64 -30 -195 -70 -204 -62 -5 5 41 26 58 26 8 0
118 45 195 79 22 10 51 22 65 26 14 4 48 20 76 36 28 16 58 29 65 29 8 0 30 9
49 19 41 23 43 24 36 12z"/>
<path d="M6312 1412 c-35 -13 -46 -14 -63 -4 -17 11 -25 10 -55 -8 -19 -12
-34 -25 -34 -28 0 -4 -10 -12 -22 -17 -13 -6 -24 -20 -26 -31 -3 -23 -102
-104 -127 -104 -8 0 -17 -4 -20 -10 -4 -6 5 -10 21 -10 22 0 25 -2 14 -15 -7
-8 -17 -15 -22 -15 -5 0 -16 -6 -23 -12 -37 -33 -46 -39 -55 -33 -6 3 -10 -1
-10 -9 0 -9 -5 -16 -11 -16 -5 0 -7 5 -3 12 4 6 -9 -1 -30 -17 -20 -15 -34
-30 -31 -33 3 -3 -6 -12 -19 -21 -102 -68 -145 -106 -131 -113 20 -12 52 6 98
55 20 23 37 37 37 32 0 -5 6 -1 13 10 9 11 19 15 27 10 8 -5 11 -4 7 2 -7 11
56 73 73 73 5 0 15 6 22 13 7 7 48 35 91 62 42 27 77 50 77 52 0 8 -57 -11
-73 -25 -16 -15 -17 -14 -11 1 3 10 18 24 33 31 15 8 43 29 63 48 20 18 45 39
55 46 10 7 1 4 -20 -8 -25 -13 -37 -16 -35 -8 3 7 15 18 27 24 12 6 32 20 44
31 36 33 46 35 39 11 -4 -16 -2 -19 8 -13 9 5 11 4 6 -3 -4 -7 -11 -12 -15
-12 -4 0 -29 -20 -55 -45 -27 -25 -53 -45 -59 -45 -6 0 -8 -3 -4 -6 3 -3 18 3
34 14 44 31 113 63 122 57 5 -2 35 3 67 13 56 17 59 19 62 52 2 28 0 32 -8 20
-9 -11 -13 -12 -17 -2 -6 15 -7 15 -61 -6z"/>
<path d="M3350 1405 c-25 -7 -70 -22 -100 -33 -30 -11 -91 -30 -135 -43 -44
-12 -84 -26 -90 -31 -5 -4 -20 -7 -35 -7 -20 1 -21 2 -5 6 11 3 25 9 30 15 11
10 -15 6 -102 -18 -58 -16 -72 -29 -20 -20 39 7 8 -7 -38 -18 -22 -5 -26 -4
-15 4 8 5 11 10 7 10 -4 0 -20 -9 -35 -19 -15 -11 -53 -25 -84 -31 -31 -6 -62
-18 -68 -26 -7 -7 -23 -14 -37 -14 -13 0 -51 -14 -84 -30 -39 -20 -68 -29 -82
-25 -15 4 -18 3 -9 -3 9 -6 -9 -16 -60 -31 -92 -29 -158 -53 -158 -58 0 -4 89
4 146 13 18 2 46 11 63 20 17 8 35 13 41 9 5 -3 18 -2 27 3 10 5 38 12 63 16
l45 6 -30 -15 c-24 -11 -26 -14 -9 -15 11 0 29 7 40 15 10 8 27 15 36 15 9 0
29 11 45 24 15 13 49 32 74 43 54 24 74 46 26 29 -17 -6 -43 -18 -57 -25 l-25
-14 19 22 19 21 -34 -5 c-31 -5 -32 -4 -10 5 14 6 30 9 37 6 6 -2 42 7 79 20
38 14 77 22 89 19 15 -5 17 -3 8 3 -11 7 -10 10 3 16 9 3 26 6 38 6 12 0 42 6
67 14 25 8 90 29 145 46 112 35 205 70 220 82 11 10 10 10 -45 -7z"/>
<path d="M3360 1243 c-33 -5 -117 -32 -155 -49 -69 -30 -253 -101 -293 -113
-24 -7 -42 -14 -40 -16 2 -2 28 3 58 11 30 9 69 16 85 16 26 -1 116 20 209 49
16 5 39 9 51 9 38 0 177 81 163 95 -3 3 -31 -6 -62 -21 -32 -14 -60 -24 -62
-21 -3 3 11 10 30 17 20 6 38 16 41 21 4 5 5 8 3 8 -2 -1 -14 -4 -28 -6z"/>
<path d="M6340 1203 c-14 -7 -19 -13 -12 -13 20 0 14 -38 -8 -50 -14 -7 -20
-7 -20 0 0 5 7 10 15 10 8 0 15 5 15 10 0 16 -13 11 -45 -16 -16 -15 -24 -23
-16 -19 10 6 12 4 7 -4 -5 -7 -14 -10 -22 -7 -8 3 -13 0 -11 -7 1 -7 -4 -11
-10 -9 -7 1 -13 -2 -13 -8 0 -5 -4 -9 -8 -7 -11 3 -92 -36 -92 -45 0 -12 13
-9 34 7 11 8 25 15 30 15 6 0 -6 -11 -26 -25 -20 -14 -39 -33 -43 -44 -3 -10
-15 -21 -25 -24 -11 -3 -18 -1 -14 4 3 5 1 9 -5 9 -13 0 -51 -49 -51 -67 0 -8
-4 -11 -10 -8 -5 3 -10 2 -10 -4 0 -5 5 -13 10 -16 12 -7 4 -25 -11 -25 -6 0
-7 6 -3 13 4 6 -3 2 -16 -11 -24 -25 -20 -43 5 -22 22 18 19 4 -4 -19 -11 -11
-22 -17 -25 -13 -3 3 -6 -1 -6 -8 0 -7 -3 -10 -6 -7 -9 9 -46 -12 -39 -22 2
-5 -1 -8 -8 -8 -25 1 -77 -28 -73 -40 3 -7 -1 -13 -10 -13 -15 0 -68 -25 -88
-41 -57 -48 -72 -59 -80 -59 -5 0 -2 8 5 18 13 16 13 16 -6 2 -11 -8 -23 -18
-26 -23 -3 -4 -16 -10 -29 -12 -13 -2 -28 -9 -34 -15 -14 -14 -29 -12 -23 3 3
8 -1 14 -9 14 -7 0 -11 -4 -8 -9 3 -4 -6 -12 -20 -18 -14 -5 -26 -15 -26 -21
0 -7 -3 -9 -6 -6 -9 9 -46 -12 -62 -35 -7 -10 -20 -18 -28 -18 -8 0 -14 -4
-14 -10 0 -5 -7 -10 -15 -10 -8 0 -15 -5 -15 -11 0 -5 -4 -7 -10 -4 -10 6 -15
-9 -10 -30 1 -5 -2 -7 -5 -3 -4 4 -17 1 -29 -7 -11 -8 -25 -15 -31 -15 -5 0
-2 5 7 10 9 6 27 24 39 41 l22 31 -41 -23 c-23 -13 -42 -28 -42 -33 0 -5 -13
-22 -30 -38 -16 -15 -30 -32 -30 -37 0 -9 -42 -29 -76 -35 -25 -5 -66 -27 -76
-41 -5 -7 -8 -7 -8 0 0 6 -7 -1 -15 -15 l-14 -25 -10 25 c-9 23 -16 14 -12
-17 1 -7 -7 -10 -18 -8 -17 3 -20 -1 -17 -26 3 -23 0 -29 -10 -25 -11 4 -12 1
-4 -14 14 -26 13 -35 -3 -21 -8 6 -18 7 -22 3 -5 -4 -5 2 -1 13 6 16 1 14 -22
-8 -21 -20 -31 -25 -34 -16 -3 9 -13 5 -32 -14 -15 -15 -29 -27 -31 -27 -8 0
8 35 19 42 8 5 7 8 -1 8 -14 0 -28 -19 -28 -40 0 -20 -40 -71 -49 -63 -3 3 -6
1 -6 -6 0 -7 -4 -9 -10 -6 -5 3 -10 -3 -10 -14 0 -21 1 -21 605 -21 538 0 609
2 633 16 25 15 26 15 7 -1 -19 -15 -6 -16 210 -13 146 2 229 7 228 13 0 6 3
17 8 26 5 10 4 20 -3 27 -7 7 -8 12 -2 12 6 0 14 -4 20 -10 6 -6 10 -1 12 15
2 23 0 24 -24 13 -13 -6 -23 -17 -20 -24 6 -15 -13 -39 -36 -47 -12 -4 -18 -1
-18 8 0 7 9 17 20 20 11 3 20 11 20 17 0 6 -6 6 -15 -2 -8 -7 -15 -9 -14 -4 0
5 19 23 42 39 41 30 42 32 45 94 3 60 2 63 -18 58 -16 -4 -20 -1 -18 11 2 10
11 16 21 14 13 -2 17 5 17 33 0 33 -2 35 -20 25 -11 -6 -18 -14 -16 -18 3 -5
1 -14 -5 -22 -7 -12 -9 -12 -9 -2 0 8 -12 0 -26 -17 -14 -17 -29 -29 -34 -26
-4 3 -11 -2 -14 -11 -3 -8 -10 -12 -16 -9 -5 3 -10 2 -10 -3 0 -5 -6 -9 -12
-10 -7 -1 -24 -3 -38 -6 -14 -2 -31 -4 -38 -5 -7 0 -18 -12 -24 -26 -15 -33
-23 -32 -22 3 2 47 16 92 29 92 7 0 57 23 111 52 55 28 109 56 121 62 l23 11
0 405 c0 380 -1 406 -17 406 -10 0 -29 -6 -43 -13z"/>
<path d="M5670 1168 c-13 -13 -26 -22 -27 -20 -10 8 -24 -1 -19 -13 4 -12 2
-13 -14 -3 -14 9 -22 9 -33 0 -7 -6 -58 -23 -112 -37 -119 -31 -137 -40 -106
-50 15 -4 29 -1 41 10 10 9 20 12 23 8 3 -5 -41 -33 -98 -63 -57 -30 -101 -58
-99 -61 2 -4 -6 -9 -17 -12 -13 -4 -18 -10 -13 -18 4 -7 3 -10 -4 -5 -6 3 -13
2 -17 -4 -16 -26 73 -17 95 10 3 3 26 14 53 24 45 17 65 46 31 46 -8 0 -12 -4
-9 -10 3 -6 -1 -7 -10 -4 -8 4 -22 1 -30 -6 -13 -11 -14 -10 -9 3 6 17 57 32
74 22 5 -3 20 0 32 7 13 7 26 12 29 13 3 0 14 8 24 19 11 10 21 14 23 8 3 -11
42 -4 42 8 0 4 20 13 45 19 28 7 45 17 45 26 0 8 4 15 8 15 9 0 40 22 80 58
15 13 22 21 15 18 -6 -3 -13 -1 -15 4 -2 6 -14 1 -28 -12z"/>
<path d="M5268 1001 c-1 -4 -14 -12 -27 -16 -18 -5 -22 -4 -16 5 6 9 4 11 -4
6 -7 -5 -10 -10 -7 -13 7 -8 -89 -103 -104 -103 -7 0 -1 10 14 21 15 12 25 24
22 27 -3 2 -12 -1 -21 -8 -8 -7 -15 -10 -15 -7 0 3 -34 -12 -76 -34 -41 -22
-79 -37 -84 -34 -5 3 -11 1 -15 -5 -3 -5 -16 -15 -28 -22 -21 -11 -21 -10 -7
8 14 18 13 18 -10 -1 -14 -11 -28 -24 -32 -30 -5 -6 -8 -4 -8 5 0 13 -1 13
-10 0 -16 -25 -12 -30 23 -24 l32 5 -31 -16 c-18 -9 -42 -28 -55 -42 l-24 -25
60 25 c33 14 75 30 92 37 18 7 44 24 59 39 14 14 29 26 33 27 3 0 32 12 65 27
32 15 63 27 68 27 5 0 7 4 4 9 -7 11 38 57 87 87 20 14 37 26 37 29 0 9 -18 5
-22 -4z"/>
<path d="M5555 948 c-11 -6 -29 -19 -40 -29 -11 -9 -51 -34 -90 -54 -38 -21
-75 -45 -82 -54 -7 -9 -13 -12 -13 -8 0 5 -15 -1 -34 -12 -36 -22 -46 -25 -46
-13 0 4 15 13 33 21 17 8 46 26 62 41 17 15 39 31 50 34 12 3 21 15 21 26 0
18 -2 18 -18 4 -9 -9 -22 -13 -30 -8 -7 4 -10 4 -6 -1 10 -11 -62 -61 -100
-70 -18 -3 -32 -12 -32 -19 0 -15 -38 -50 -62 -59 -10 -4 -18 -2 -18 3 0 6 6
10 13 10 8 0 24 12 38 27 19 21 20 25 6 20 -10 -4 -21 -7 -23 -7 -2 0 -4 -7
-4 -15 0 -8 -6 -15 -12 -16 -30 -2 -51 -8 -62 -19 -8 -8 -7 -10 5 -5 10 4 20
2 23 -4 4 -5 -3 -12 -14 -16 -11 -3 -25 -15 -30 -26 -6 -10 -18 -19 -27 -19
-8 0 -31 -9 -49 -21 -29 -18 -34 -18 -34 -5 0 22 -27 31 -45 16 -13 -11 -14
-10 -9 3 5 14 1 14 -41 2 -25 -8 -50 -17 -55 -20 -6 -3 -10 -2 -10 4 0 11 -69
-17 -126 -51 -41 -24 -40 -31 4 -19 18 5 32 8 32 5 0 -7 -53 -27 -75 -28 -32
-2 -81 -36 -65 -46 9 -6 6 -11 -11 -20 -13 -7 -46 -30 -73 -51 -27 -22 -57
-39 -68 -39 -37 0 -149 -59 -183 -97 -19 -20 -37 -34 -41 -30 -4 4 -2 7 5 7 7
0 18 15 26 33 11 28 31 42 111 83 53 27 100 49 103 50 3 0 19 6 34 12 16 7 33
12 38 12 6 0 8 4 4 9 -3 5 4 12 15 16 22 7 27 25 8 25 -7 0 1 11 17 25 17 13
26 24 20 24 -20 0 -80 -35 -78 -45 1 -6 -30 -21 -68 -34 -39 -12 -78 -31 -87
-40 -20 -21 -56 -40 -85 -46 -11 -2 -25 -10 -29 -18 -5 -9 -15 -13 -22 -10 -7
3 -16 -2 -19 -10 -4 -9 -13 -16 -20 -16 -8 0 -20 -7 -28 -16 -7 -8 -21 -13
-31 -11 -10 3 -16 2 -13 -3 3 -4 -2 -11 -11 -14 -10 -4 -13 -2 -8 7 7 12 -13
-4 -65 -50 -17 -15 -27 -19 -32 -11 -10 15 -117 -28 -146 -59 -13 -13 -23 -21
-23 -17 0 3 -7 1 -15 -6 -8 -6 -19 -9 -25 -5 -5 3 -10 0 -10 -7 0 -9 -3 -9
-10 2 -8 13 -10 13 -10 -1 0 -11 -10 -16 -31 -17 -18 0 -37 -6 -43 -12 -8 -8
-3 -10 19 -6 28 6 27 5 -5 -8 -19 -7 -38 -12 -42 -10 -7 5 -80 -32 -119 -59
-13 -10 -33 -17 -44 -18 -11 0 -14 -3 -7 -6 6 -2 9 -9 6 -14 -3 -6 -11 -5 -20
2 -8 6 -17 9 -21 5 -3 -3 -1 -6 6 -6 7 0 9 -5 6 -10 -4 -7 148 -10 448 -10
l455 0 33 31 c18 17 41 31 51 32 9 1 20 7 23 15 3 8 12 11 21 8 8 -3 12 -2 9
4 -3 6 -2 10 3 10 5 0 33 19 62 42 28 22 63 41 77 42 15 1 28 7 31 14 2 8 -2
10 -14 5 -12 -4 -15 -3 -10 5 10 17 -5 15 -32 -4 -44 -31 -21 3 28 40 28 21
50 43 50 50 0 6 14 17 31 25 18 8 34 22 36 32 3 11 8 20 12 20 3 1 22 3 41 5
19 2 49 10 65 18 17 7 44 18 60 24 17 5 39 13 50 17 19 6 19 6 2 -8 -28 -23
-3 -30 35 -11 54 27 63 37 41 45 -15 6 -13 8 9 8 14 1 28 5 30 10 2 5 32 24
66 42 110 58 123 67 138 86 9 10 12 11 8 3 -7 -12 -5 -13 8 -3 8 7 17 11 20 8
3 -3 13 5 24 17 15 18 16 20 2 9 -12 -9 -18 -10 -18 -2 0 6 25 25 55 42 31 17
54 34 51 37 -3 3 -11 1 -18 -5 -7 -5 -32 -15 -55 -23 -26 -8 -43 -19 -43 -28
0 -9 -3 -13 -6 -9 -4 3 -21 -1 -38 -10 -29 -15 -29 -14 9 22 38 35 69 52 106
60 33 7 98 45 117 69 11 14 22 23 24 20 3 -2 11 3 19 13 12 14 12 16 0 8 -9
-5 -12 -4 -7 3 4 6 12 9 19 6 7 -2 23 9 36 27 l23 31 -24 -12 c-37 -20 -158
-113 -158 -123 0 -4 -5 -5 -10 -2 -6 4 -25 -3 -44 -14 -18 -11 -35 -19 -38
-16 -8 8 -68 -16 -68 -27 0 -5 -4 -7 -9 -4 -12 8 -54 -40 -47 -53 4 -5 -2 -15
-13 -21 -13 -7 -18 -16 -14 -27 4 -11 2 -14 -5 -9 -6 3 -16 -3 -22 -14 -6 -11
-16 -20 -23 -20 -13 0 -88 -65 -82 -71 2 -2 -10 -4 -26 -4 -37 0 -37 8 4 36
17 13 36 29 40 36 4 7 28 27 53 44 32 22 43 34 35 42 -7 7 1 19 26 38 20 16
40 29 45 29 4 0 14 11 20 25 8 19 14 22 20 13 6 -10 8 -8 8 5 0 10 8 17 20 17
11 0 20 -5 20 -12 0 -7 5 -5 13 4 6 9 49 35 95 58 45 24 82 46 82 51 0 14 -8
11 -48 -16 -39 -27 -57 -31 -67 -15 -4 6 1 7 11 3 11 -4 15 -3 10 5 -3 6 -1
14 5 18 8 4 9 3 5 -4 -4 -7 -2 -12 3 -12 6 0 11 4 11 8 0 4 18 19 39 32 21 14
37 29 34 33 -3 5 3 15 13 22 23 17 17 19 -11 3z m-439 -270 c4 -6 3 -8 -4 -4
-6 3 -13 -6 -17 -24 -4 -17 -10 -28 -15 -25 -4 3 -11 -2 -14 -11 -3 -9 -12
-14 -19 -11 -6 2 -29 -11 -50 -29 -20 -19 -42 -34 -49 -34 -19 0 -57 -41 -51
-56 3 -8 0 -14 -7 -14 -9 0 -9 -4 1 -17 12 -16 12 -17 -2 -6 -17 14 -59 7 -59
-10 0 -6 -3 -7 -7 -4 -3 4 -21 -2 -39 -13 -18 -12 -48 -23 -67 -25 -19 -3 -55
-13 -81 -24 -27 -12 -46 -16 -46 -9 0 7 -5 6 -15 -2 -16 -13 -20 -3 -7 16 8
12 46 34 58 34 4 0 -1 -7 -12 -15 -18 -14 -17 -14 10 -5 16 6 40 19 55 29 14
10 35 21 45 25 15 5 17 9 8 18 -15 15 -15 28 -1 28 5 0 7 -4 4 -10 -3 -5 1
-10 9 -10 9 0 16 5 16 10 0 6 7 10 15 10 9 0 12 -6 9 -17 -5 -15 -4 -15 4 -3
6 8 8 18 6 22 -3 5 9 16 25 26 17 9 29 22 27 29 -3 6 2 17 10 23 11 10 14 10
14 1 0 -7 5 -9 10 -6 6 4 7 11 4 17 -5 7 1 9 15 5 13 -3 20 -3 17 0 -3 3 0 15
6 26 9 17 8 19 -8 13 -11 -5 -25 -9 -33 -10 -8 -2 -22 -12 -32 -24 -9 -12 -22
-22 -27 -22 -6 0 -13 -9 -17 -20 -6 -19 -56 -50 -80 -50 -7 0 -25 -10 -40 -22
-25 -19 -26 -19 -15 -2 7 11 26 28 42 37 17 10 28 20 25 24 -8 8 32 43 49 43
7 0 18 9 24 21 11 19 10 20 -10 9 -12 -6 -24 -10 -26 -7 -2 2 15 12 38 23 24
10 45 21 48 25 3 3 15 8 28 11 15 4 22 2 22 -9 0 -13 3 -13 25 1 14 9 25 15
26 14 7 -25 4 -40 -11 -53 -10 -9 -16 -23 -14 -30 3 -7 -10 -19 -29 -29 -19
-9 -37 -22 -40 -31 -5 -11 -1 -11 21 3 72 45 99 68 127 102 17 21 33 33 36 28
3 -5 17 0 30 11 29 24 26 24 35 9z"/>
<path d="M4392 754 c-29 -13 -56 -23 -60 -22 -11 4 -74 -24 -101 -44 -13 -10
-28 -15 -33 -12 -5 3 -16 0 -25 -8 -14 -11 -16 -11 -8 2 6 11 3 10 -12 -2 -11
-10 -28 -18 -39 -18 -10 0 -34 -14 -53 -31 l-35 -30 35 6 c19 3 36 10 37 16 2
5 11 9 20 10 14 0 13 2 -3 9 -26 11 2 12 30 1 19 -8 19 -8 -2 -15 -24 -8 -32
-26 -11 -26 26 0 236 113 278 150 52 46 52 46 -18 14z"/>
<path d="M4748 754 c-4 -3 -12 -7 -20 -8 -7 -2 -26 -8 -41 -14 -16 -7 -31 -12
-33 -12 -13 0 -143 -66 -181 -92 -24 -16 -43 -26 -43 -23 0 3 -23 -13 -52 -36
-49 -39 -53 -40 -66 -22 -13 17 -14 17 -7 -4 5 -19 1 -25 -20 -33 -31 -12
-138 -90 -132 -96 8 -8 136 55 208 103 39 25 78 47 87 48 24 2 53 16 81 37 27
21 46 24 35 6 -6 -10 -5 -10 8 -1 8 7 19 9 23 5 5 -4 5 -1 1 6 -4 6 -2 12 4
12 6 0 23 12 38 26 l27 26 -42 -21 c-24 -12 -43 -20 -43 -18 0 7 109 77 120
77 5 0 10 4 10 9 0 5 9 7 20 4 12 -3 20 0 20 6 0 7 5 9 10 6 6 -3 10 -1 10 4
0 12 -13 15 -22 5z"/>
</g>
</svg>
