<?xml version="1.0" standalone="no"?>
<!DOCTYPE svg PUBLIC "-//W3C//DTD SVG 20010904//EN"
 "http://www.w3.org/TR/2001/REC-SVG-20010904/DTD/svg10.dtd">
<svg version="1.0" xmlns="http://www.w3.org/2000/svg"
 width="1920.000000pt" height="1079.000000pt" viewBox="0 0 1920.000000 1079.000000"
 preserveAspectRatio="xMidYMid meet">
<metadata>
Created by potrace 1.16, written by Peter Selinger 2001-2019
</metadata>
<g transform="translate(0.000000,1079.000000) scale(0.100000,-0.100000)"
fill="#000000" stroke="none">
<path d="M0 10564 c0 -149 3 -231 10 -239 8 -9 8 -15 0 -20 -7 -4 -10 -277
-10 -866 0 -811 1 -859 18 -859 16 -1 16 -1 -1 -14 -16 -13 -17 -51 -16 -620
0 -418 4 -605 11 -603 6 1 13 -4 16 -12 3 -10 0 -12 -12 -8 -14 6 -16 -3 -16
-60 0 -60 1 -64 17 -52 9 8 14 9 10 3 -4 -7 1 -18 10 -25 9 -8 14 -9 10 -3 -4
7 0 14 8 18 22 8 30 -14 11 -32 -16 -16 -18 -16 -30 1 -18 24 -36 21 -36 -5 0
-17 3 -19 9 -10 7 11 12 12 29 1 18 -11 18 -14 4 -28 -8 -9 -20 -16 -26 -16
-8 0 -12 -97 -13 -308 -1 -211 2 -307 9 -307 7 0 7 -4 1 -12 -14 -18 -17 -402
-3 -393 5 3 10 -1 10 -10 0 -9 -4 -13 -10 -10 -6 4 -10 -45 -10 -139 0 -91 4
-146 10 -146 6 0 10 -5 10 -11 0 -5 -4 -7 -10 -4 -6 4 -10 -71 -9 -214 0 -161
3 -221 12 -225 9 -3 9 -5 0 -5 -8 -1 -12 -82 -12 -302 -1 -205 2 -299 9 -294
5 3 10 1 10 -4 0 -6 -4 -11 -9 -11 -6 0 -10 -67 -10 -160 -1 -118 2 -160 11
-160 9 0 9 -3 0 -12 -15 -15 -16 -82 -2 -73 6 3 10 1 10 -4 0 -6 -4 -11 -10
-11 -6 0 -10 -772 -10 -2150 l0 -2150 2009 0 c1595 0 2010 3 2014 13 4 9 6 9
6 -1 1 -17 1388 -17 1408 0 9 7 13 7 13 -1 0 -8 276 -11 1035 -11 683 0 1035
3 1035 10 0 6 7 10 15 10 8 0 15 -4 15 -10 0 -6 894 -10 2600 -10 2075 0 2599
3 2598 12 -2 7 4 13 12 13 8 0 14 -6 13 -12 -4 -19 2413 -19 2420 0 4 9 6 9 6
0 1 -17 501 -19 501 -2 0 9 3 9 14 0 10 -8 388 -11 1410 -11 1249 0 1396 2
1396 16 0 8 5 12 10 9 6 -4 8 -10 5 -15 -3 -6 135 -9 330 -10 l335 0 0 1109
c0 878 -3 1110 -12 1114 -10 4 -10 6 -1 6 16 1 19 941 3 941 -6 0 -10 5 -10
11 0 5 4 8 9 4 6 -3 10 172 10 449 1 423 0 454 -16 461 -17 6 -17 7 0 16 20
12 23 59 5 78 -10 11 -10 13 0 7 9 -6 12 18 12 103 0 98 -2 111 -17 111 -15 0
-15 2 2 14 16 12 17 16 6 30 -9 11 -10 16 -2 16 16 0 15 182 -1 198 -9 9 -9
12 1 12 19 0 14 327 -6 334 -8 4 -19 4 -24 0 -5 -3 -9 1 -9 9 0 8 7 17 15 21
9 3 15 0 15 -9 0 -8 4 -15 8 -15 4 0 9 70 10 157 3 120 0 158 -10 164 -10 7
-10 9 0 9 6 0 12 7 12 15 0 8 -7 15 -15 15 -8 0 -15 5 -15 11 0 6 7 9 15 5 13
-5 15 16 15 149 0 92 -4 156 -10 160 -5 3 -10 12 -10 18 0 7 4 6 10 -3 6 -9 9
50 9 165 0 128 -3 182 -12 188 -9 7 -9 10 1 14 8 3 12 36 12 114 0 99 -2 108
-17 103 -17 -5 -17 -5 0 6 24 15 25 120 1 120 -8 0 -12 5 -9 10 4 6 10 8 15 5
5 -3 9 278 10 625 1 570 -1 630 -15 630 -9 0 -13 5 -10 10 4 6 11 8 16 5 5 -4
9 200 9 525 0 422 -3 530 -12 524 -10 -6 -10 -4 0 7 18 19 18 654 0 643 -10
-6 -10 -4 0 8 10 13 13 69 11 242 -2 222 -2 226 -23 227 -21 0 -21 1 2 11 21
11 22 16 22 155 l0 145 -32 -7 -33 -7 19 21 c11 12 26 19 33 17 11 -5 13 37
12 234 -1 239 -1 240 -22 241 l-22 0 22 11 c17 8 23 20 23 45 l0 33 -686 0
c-590 -1 -688 -3 -701 -15 -15 -16 -38 -11 -28 6 4 5 -5 9 -19 9 -16 0 -26 -6
-26 -15 0 -8 -7 -15 -15 -15 -9 0 -12 6 -9 15 5 13 -31 15 -287 15 -194 0
-289 -4 -279 -10 9 -6 10 -10 3 -10 -6 0 -15 4 -18 10 -4 6 -450 10 -1256 10
-1100 0 -1252 -2 -1266 -15 -15 -16 -38 -11 -28 6 4 5 -188 9 -493 9 -435 0
-501 -2 -506 -15 -3 -8 -12 -15 -21 -15 -8 0 -15 7 -15 15 0 13 -115 15 -978
15 -747 0 -981 -3 -990 -12 -9 -9 -12 -9 -12 0 0 17 -721 17 -738 0 -9 -9 -12
-9 -12 0 0 9 -1209 12 -5409 12 l-5410 0 -1 -226z m1395 -3785 c-6 -19 -5 -20
17 -9 l23 11 -24 -20 c-13 -12 -18 -21 -11 -21 7 0 19 -8 27 -17 13 -17 13
-16 4 3 -8 16 -5 23 11 33 17 11 22 10 29 -1 9 -13 12 -27 10 -40 0 -5 6 -8
14 -8 9 0 15 -10 16 -22 0 -13 3 -17 6 -10 2 6 9 10 14 6 5 -3 9 0 9 5 0 6 4
11 10 11 5 0 7 -7 5 -15 -16 -49 -15 -48 -30 -35 -19 16 -20 3 0 -16 8 -8 12
-21 9 -28 -3 -9 3 -17 17 -21 17 -6 19 -9 8 -16 -11 -7 -10 -9 4 -9 9 0 17 5
17 11 0 6 6 9 13 6 6 -2 11 -10 9 -16 -2 -9 3 -9 17 -1 26 13 34 13 26 -2 -4
-7 0 -5 8 4 15 19 32 13 19 -6 -7 -12 -9 -18 -11 -41 -2 -21 -21 -19 -21 3 0
12 -8 18 -25 20 -14 1 -25 -4 -25 -10 0 -9 -3 -9 -12 0 -15 15 -28 16 -28 2 0
-5 7 -10 15 -10 8 0 24 -9 34 -19 14 -14 22 -16 30 -8 8 8 11 7 11 -2 0 -10 6
-9 25 3 15 10 34 14 45 11 27 -9 44 3 30 20 -8 9 -7 14 4 18 20 8 27 -3 16
-23 -11 -20 13 -50 25 -30 3 5 1 10 -5 10 -7 0 -9 12 -5 34 5 27 3 37 -12 46
-14 9 -15 10 -1 6 9 -2 22 2 28 9 7 8 16 12 21 9 5 -3 9 0 9 5 0 14 -17 14
-25 1 -3 -5 -11 -10 -16 -10 -6 0 -7 5 -3 11 4 7 7 25 6 42 -1 23 2 27 11 18
7 -7 12 -17 12 -23 0 -11 20 -18 57 -21 13 -1 14 -5 6 -21 -8 -15 -8 -21 1
-24 6 -2 11 -14 11 -27 0 -13 5 -27 11 -31 17 -10 -7 -28 -27 -20 -13 5 -14
10 -6 18 12 12 4 41 -9 32 -5 -3 -9 -16 -9 -29 0 -23 -20 -29 -37 -10 -4 4 -2
5 5 1 12 -7 21 6 26 36 1 7 5 19 10 26 6 10 0 11 -25 7 -19 -3 -36 -9 -39 -12
-3 -3 5 -4 16 -1 18 5 21 1 20 -17 0 -13 -4 -21 -7 -19 -4 2 -12 -3 -18 -10
-10 -11 -8 -17 6 -25 11 -6 13 -11 5 -11 -15 0 -6 -20 9 -20 6 0 8 4 4 9 -8
14 8 21 24 11 11 -6 9 -10 -6 -19 -24 -12 -58 -7 -81 11 -9 7 -13 8 -10 3 4
-6 0 -18 -7 -28 -8 -12 -15 -14 -20 -8 -3 6 -2 11 3 11 5 0 9 7 9 15 0 19 -11
19 -27 1 -6 -8 -17 -13 -24 -10 -8 3 -17 -3 -20 -13 -6 -14 -5 -15 5 -6 15 15
49 -1 49 -22 0 -18 0 -18 -38 1 -18 8 -36 13 -42 9 -5 -3 -10 -1 -10 4 0 6 7
11 15 11 8 0 15 4 15 10 0 5 -16 9 -35 8 -25 -1 -35 -6 -35 -17 0 -14 -2 -14
-10 -1 -8 13 -10 12 -10 -2 0 -10 -5 -18 -11 -18 -5 0 -7 5 -4 10 3 6 1 10 -4
10 -6 0 -11 -7 -11 -15 0 -8 5 -15 10 -15 6 0 10 -6 10 -14 0 -8 9 -18 20 -21
22 -7 26 -20 8 -31 -7 -5 -8 -3 -3 6 6 10 3 12 -13 8 -12 -3 -21 -3 -20 1 2
20 -4 31 -18 31 -8 0 -12 -4 -9 -10 3 -5 2 -10 -4 -10 -5 0 -11 5 -13 12 -3 7
-12 6 -30 -6 -26 -17 -26 -17 -21 6 3 13 10 28 14 34 5 6 6 14 2 17 -3 4 0 7
7 7 7 0 11 2 8 5 -3 3 -17 1 -31 -4 -19 -8 -27 -7 -31 5 -3 8 -2 14 2 14 5 0
16 6 27 13 14 11 15 16 5 22 -9 5 -11 4 -6 -3 4 -7 3 -12 -3 -12 -5 0 -13 5
-16 10 -4 6 -11 7 -17 4 -8 -5 -9 -1 -4 11 5 15 4 16 -8 6 -12 -10 -13 -9 -9
8 4 15 1 21 -11 21 -10 0 -14 5 -11 10 3 6 1 10 -4 10 -6 0 -11 5 -11 10 0 6
6 10 14 10 23 0 27 38 4 43 -12 3 -17 10 -13 17 5 8 11 8 21 -1 12 -10 13 -9
9 4 -8 18 -45 30 -45 14 0 -7 -3 -23 -7 -36 -4 -15 -2 -22 4 -18 6 4 8 -4 4
-21 -5 -25 -6 -25 -9 -4 -2 12 -8 22 -13 22 -6 0 -8 4 -5 9 3 4 -6 13 -19 19
-14 7 -25 16 -25 22 0 5 -5 10 -11 10 -8 0 -8 -4 -2 -12 6 -7 9 -21 8 -30 -2
-11 3 -18 12 -18 12 0 12 -2 -1 -16 -20 -19 -21 -38 -2 -31 10 4 13 1 9 -9 -3
-7 -14 -14 -25 -14 -11 0 -16 5 -13 10 4 6 1 18 -7 27 -11 15 -11 16 6 10 15
-6 17 -5 8 6 -8 10 -8 17 -1 24 7 7 7 13 1 17 -5 3 -18 -10 -28 -29 -20 -38
-34 -47 -54 -35 -9 6 -7 13 9 29 12 12 26 19 30 16 11 -6 23 24 14 37 -3 7 -1
8 5 4 7 -4 12 -1 12 9 0 12 -5 15 -17 11 -13 -4 -12 -1 5 13 12 11 18 22 13
25 -5 4 -12 0 -14 -6 -4 -10 -8 -9 -16 2 -12 17 -8 36 7 33 12 -3 10 29 -3 40
-6 5 -4 7 5 4 8 -2 14 -9 13 -15 -2 -6 6 -9 16 -7 11 2 22 -3 25 -11 3 -8 1
-14 -5 -14 -6 0 -9 -7 -5 -15 3 -8 -2 -21 -10 -30 -14 -14 -13 -15 15 -13 18
1 31 8 31 15 0 11 7 10 31 -3 30 -15 33 -15 52 4 10 11 16 25 13 31 -10 16
-43 13 -50 -5 -3 -8 -11 -12 -16 -9 -15 9 -7 30 11 30 8 0 13 8 11 18 -2 9 2
17 8 17 5 0 10 -7 10 -15 0 -8 5 -15 11 -15 5 0 7 4 4 10 -3 5 -8 26 -11 47
-4 37 -4 37 11 15 10 -13 14 -31 10 -43z m-591 -56 c7 3 13 -3 13 -14 1 -12
-3 -16 -14 -12 -13 5 -14 3 -4 -15 12 -23 27 -31 16 -9 -4 6 1 3 9 -7 11 -13
16 -15 16 -6 0 9 6 8 20 -5 14 -13 20 -14 20 -5 0 7 2 11 5 8 3 -3 3 -13 -1
-22 -5 -13 -9 -14 -21 -5 -12 10 -13 8 -9 -17 2 -16 5 -30 5 -31 1 -2 1 -6 0
-9 0 -4 3 -10 8 -13 13 -10 30 -45 38 -79 3 -18 11 -32 16 -32 5 0 9 -4 9 -10
0 -19 -16 -10 -33 20 -10 17 -16 33 -13 38 2 4 -2 18 -10 32 l-15 25 6 -28 c5
-27 4 -27 -17 -16 -16 9 -19 14 -9 17 11 4 11 6 0 13 -11 6 -11 11 -1 21 6 6
12 17 12 23 0 5 -7 1 -15 -9 -8 -11 -15 -15 -15 -9 0 6 6 16 14 23 14 11 12
40 -2 38 -4 0 -14 0 -22 1 -13 1 -13 3 -1 10 10 7 7 9 -11 8 -14 -1 -24 -7
-21 -13 2 -6 -7 -14 -21 -16 -18 -4 -26 -1 -26 8 0 18 -9 18 -32 -3 -12 -10
-18 -12 -18 -4 0 7 -4 10 -8 7 -5 -3 -9 0 -9 7 0 7 -3 22 -7 35 -5 13 -3 22 3
22 6 0 11 -9 11 -20 0 -22 31 -23 52 -2 16 16 35 15 41 0 4 -10 6 -10 6 -1 1
6 -3 15 -9 18 -16 10 -12 25 5 19 11 -5 13 -2 9 10 -3 9 -10 13 -15 10 -5 -3
-9 -1 -9 4 0 18 13 21 27 6 9 -8 21 -13 27 -11z"/>
</g>
</svg>
