<?xml version="1.0" standalone="no"?>
<!DOCTYPE svg PUBLIC "-//W3C//DTD SVG 20010904//EN"
 "http://www.w3.org/TR/2001/REC-SVG-20010904/DTD/svg10.dtd">
<svg version="1.0" xmlns="http://www.w3.org/2000/svg"
 width="4256.000000pt" height="2832.000000pt" viewBox="0 0 4256.000000 2832.000000"
 preserveAspectRatio="xMidYMid meet">
<metadata>
Created by potrace 1.16, written by Peter Selinger 2001-2019
</metadata>
<g transform="translate(0.000000,2832.000000) scale(0.100000,-0.100000)"
fill="#000000" stroke="none">
<path d="M0 14160 l0 -14160 10238 0 c5800 0 10231 4 10223 9 -7 5 -11 15 -9
22 3 10 10 7 23 -9 l19 -22 11033 0 11033 0 0 14160 0 14160 -21280 0 -21280
0 0 -14160z m17550 3790 c45 -23 49 -36 19 -74 -18 -23 -27 -26 -82 -26 -86 0
-107 7 -107 35 0 27 39 58 90 73 19 6 36 11 38 11 1 1 21 -8 42 -19z m1332
-586 c5 -3 4 -14 -2 -24 -7 -12 -30 -22 -67 -30 -32 -6 -79 -17 -104 -25 -26
-8 -63 -15 -82 -15 -20 0 -58 -5 -86 -12 -44 -10 -57 -9 -86 5 -28 14 -35 14
-35 3 0 -21 -27 -27 -41 -10 -9 11 -9 18 -1 26 20 20 115 48 163 48 56 0 149
20 149 32 0 8 179 10 192 2z m925 -524 c4 -16 9 -18 25 -9 22 12 40 2 19 -10
-17 -11 -4 -19 47 -27 23 -4 42 -9 42 -13 -1 -18 -18 -28 -45 -26 -16 1 -48
-4 -70 -11 -22 -8 -55 -14 -74 -14 -29 0 -32 2 -21 15 7 8 9 15 4 15 -5 0 -1
7 9 14 16 13 16 14 1 20 -19 7 -77 -9 -111 -31 -29 -19 -87 -13 -91 9 -2 12 5
19 25 23 15 4 60 17 98 30 117 40 135 42 142 15z m-3681 -480 c18 -7 30 -7 40
1 15 12 54 3 54 -12 0 -6 -9 -7 -20 -4 -21 7 -27 -4 -11 -20 6 -6 3 -19 -8
-34 -13 -17 -29 -24 -57 -25 -21 0 -42 -5 -46 -11 -7 -9 -138 -9 -147 1 -2 2
-10 -4 -17 -14 -12 -16 -13 -15 -14 4 0 15 11 27 36 39 19 9 37 22 40 30 3 7
20 16 38 19 18 4 41 13 52 21 23 17 26 18 60 5z m14068 -1225 c11 -8 36 -15
55 -16 20 0 45 -4 55 -8 18 -7 16 -9 -14 -19 -18 -7 -39 -12 -47 -12 -8 0 -34
-9 -58 -20 -43 -20 -43 -20 -89 1 -57 25 -62 53 -13 74 42 18 87 18 111 0z
m-21394 -64 c0 -6 -5 -13 -12 -17 -15 -9 -141 -41 -234 -58 -39 -8 -81 -19
-92 -25 -25 -14 -102 -15 -102 -1 0 14 26 25 109 46 40 10 76 25 79 32 3 8 7
10 11 4 4 -7 21 -7 51 0 25 5 68 11 97 11 28 1 55 5 59 10 10 10 34 9 34 -2z
m5514 -659 c-6 -4 -13 -15 -17 -25 -6 -17 0 -18 72 -16 57 1 84 -2 94 -12 18
-19 83 -18 79 1 -7 30 43 40 51 10 7 -29 27 -25 27 5 0 35 35 48 73 28 16 -8
31 -12 35 -9 3 3 0 6 -7 6 -7 0 -9 5 -6 10 3 6 18 10 33 10 20 0 23 -3 13 -9
-11 -7 -5 -11 24 -17 26 -4 72 0 143 15 96 20 106 21 121 6 14 -14 14 -18 1
-43 -12 -20 -25 -28 -50 -30 -19 -2 -49 -14 -66 -27 -28 -21 -30 -28 -25 -62
6 -36 8 -38 46 -39 50 -1 61 -16 17 -25 -18 -4 -41 -14 -51 -23 -10 -9 -27
-16 -38 -16 -43 0 -53 -9 -40 -37 9 -21 8 -27 -8 -39 -10 -8 -27 -14 -37 -14
-10 0 -21 -7 -24 -15 -4 -8 -12 -15 -20 -15 -8 0 -14 7 -14 15 0 22 -13 18
-41 -11 -31 -33 -71 -54 -104 -54 -33 0 -55 -21 -55 -53 0 -16 -12 -34 -35
-52 -30 -22 -42 -26 -75 -20 -32 5 -40 3 -49 -14 -7 -11 -24 -27 -39 -35 l-27
-15 33 -1 c36 0 45 -25 12 -35 -24 -8 -108 4 -116 16 -3 5 -18 9 -34 9 -16 0
-31 4 -34 9 -4 6 -17 5 -34 -1 -22 -9 -37 -6 -75 11 -31 14 -45 26 -40 34 4 7
0 7 -10 -2 -9 -7 -17 -10 -17 -5 0 11 -20 -18 -20 -28 0 -5 4 -7 9 -5 13 3 14
-8 6 -56 -5 -37 -12 -45 -48 -63 -31 -16 -41 -26 -40 -42 2 -13 -5 -23 -18
-27 -32 -11 -45 10 -18 28 17 12 23 27 24 62 1 25 -1 45 -4 45 -3 -1 -22 -14
-41 -30 -19 -17 -44 -30 -57 -30 -12 0 -25 -4 -28 -10 -3 -5 -32 -10 -63 -10
-31 0 -79 -8 -107 -18 -43 -16 -50 -21 -47 -43 2 -18 -4 -27 -27 -37 -16 -7
-41 -10 -55 -6 -16 4 -26 2 -26 -5 0 -6 -4 -11 -9 -11 -20 0 -111 -64 -116
-81 -12 -36 -205 -102 -205 -70 0 6 7 11 15 11 8 0 15 7 15 15 0 9 11 20 25
25 14 5 25 14 25 19 0 6 18 15 40 21 21 6 42 14 45 19 3 5 27 14 53 21 27 6
63 20 80 30 29 18 31 22 20 45 -6 14 -19 25 -29 25 -10 0 -21 5 -24 10 -4 7
-13 6 -27 -1 -41 -22 -253 -45 -264 -28 -6 10 14 13 64 10 19 -2 41 4 50 12 9
8 39 25 65 38 58 28 67 39 33 39 -64 0 -183 -40 -192 -65 -4 -8 -16 -15 -28
-15 -12 0 -30 -6 -41 -13 -28 -19 -111 -41 -130 -33 -18 6 -65 -12 -81 -33 -8
-10 -19 -12 -40 -6 -16 5 -34 7 -41 6 -17 -2 -27 19 -14 32 14 14 15 30 1 22
-5 -3 -10 -1 -10 4 0 6 7 11 16 11 27 0 10 22 -26 34 -31 10 -47 7 -130 -21
-57 -20 -122 -52 -162 -79 -58 -39 -68 -50 -68 -76 0 -17 10 -39 25 -53 l24
-25 -27 -14 c-15 -8 -38 -26 -50 -41 -17 -19 -27 -24 -34 -17 -16 16 -2 42 22
42 25 0 26 12 0 35 -13 12 -17 22 -11 29 6 7 15 25 21 40 l11 29 -61 -6 c-33
-4 -60 -5 -60 -3 0 16 14 36 26 36 9 0 14 11 14 29 0 16 3 43 6 60 l7 31 -47
0 c-32 0 -46 4 -46 14 0 7 -7 19 -15 26 -10 8 -12 17 -6 23 13 13 31 0 31 -24
0 -22 1 -23 35 -7 18 8 24 17 20 29 -12 38 35 62 200 102 33 8 49 16 35 16
-19 1 -30 11 -44 41 -12 25 -16 44 -10 50 17 16 94 38 100 28 3 -5 -3 -12 -15
-15 -22 -6 -49 -69 -35 -83 8 -8 34 -5 122 15 12 3 22 11 21 18 -6 48 -1 52
63 52 55 0 63 3 74 24 18 35 94 76 117 62 10 -7 17 -7 17 -2 0 6 17 15 37 20
38 11 57 6 34 -8 -11 -7 -9 -12 9 -21 14 -8 20 -8 16 -1 -12 19 13 50 56 71
44 21 83 27 73 10 -3 -5 1 -10 10 -10 9 0 14 4 11 9 -19 31 250 36 319 6 17
-7 55 -12 85 -11 52 1 55 2 58 29 2 15 8 25 13 21 13 -8 61 24 54 36 -4 6 2
10 12 10 15 0 16 2 3 10 -12 8 -11 10 8 10 12 0 22 5 22 10 0 6 9 10 21 10 11
0 17 -4 14 -10 -10 -16 15 -12 32 6 14 14 14 16 -3 29 -11 8 -27 13 -36 11 -9
-2 -19 3 -23 12 -5 14 -7 14 -15 2 -6 -8 -10 -10 -10 -4 0 6 9 23 20 37 13 16
16 28 10 32 -23 14 -7 25 34 25 25 0 57 5 72 10 14 6 31 7 38 2 6 -5 40 -7 76
-6 36 2 72 1 81 -2 21 -6 24 -64 3 -64 -8 0 -14 -6 -15 -12 -2 -43 -10 -73
-19 -76 -5 -2 -8 -8 -4 -13 11 -19 77 -8 134 22 59 30 64 41 38 75 -19 26 44
94 87 94 7 0 19 7 26 16 14 17 51 34 59 27 2 -2 0 -7 -6 -11z m19250 -271 c45
-9 45 -31 -1 -31 -52 0 -83 -10 -83 -25 0 -27 -31 -45 -75 -45 -24 0 -47 -5
-51 -12 -4 -6 -3 -8 3 -5 6 4 13 -2 16 -13 4 -16 -1 -21 -32 -26 -20 -3 -40
-7 -46 -8 -14 -4 -45 13 -45 24 0 6 14 10 30 10 20 0 30 5 30 15 0 9 9 15 21
15 19 0 20 4 15 34 -7 38 6 54 57 66 39 10 121 10 161 1z m-6753 -52 c20 -10
20 -11 3 -30 -17 -18 -16 -19 34 -19 50 0 68 -12 37 -24 -22 -8 -18 -23 8 -30
21 -7 21 -7 2 -16 -11 -5 -50 -9 -87 -9 -43 -1 -68 -5 -68 -12 0 -6 7 -9 15
-6 8 4 17 1 21 -6 4 -7 4 -9 -1 -5 -4 4 -27 -4 -50 -17 -30 -18 -57 -25 -93
-25 -53 0 -58 5 -53 46 2 20 -29 24 -66 9 -52 -22 -79 -19 -129 15 -47 33 -52
42 -31 58 17 14 163 30 181 20 9 -5 30 -2 52 7 20 8 56 15 79 15 28 0 51 7 66
20 27 22 51 25 80 9z m-5013 -82 c3 -14 19 -15 129 -11 127 5 178 1 169 -15
-3 -5 -20 -11 -38 -14 -74 -12 -119 -25 -142 -41 -14 -9 -32 -16 -41 -16 -21
0 -20 -57 2 -78 15 -16 14 -17 -16 -26 -28 -8 -36 -6 -50 11 -21 28 -81 36
-81 11 0 -7 -9 -24 -20 -38 -20 -26 -66 -34 -250 -44 -105 -6 -169 -15 -189
-28 -24 -15 -39 -4 -23 15 16 19 5 27 -35 27 -19 0 -32 4 -28 9 3 6 -2 14 -12
19 -12 7 -28 5 -54 -8 -35 -19 -37 -19 -73 1 -20 10 -52 19 -72 19 -47 0 -41
25 7 26 78 2 167 16 217 36 36 14 56 17 65 10 8 -7 34 -5 82 5 69 14 89 22 70
30 -37 13 -80 43 -83 57 -3 13 4 15 40 11 138 -14 148 -14 148 0 0 8 -7 15
-15 15 -15 0 -20 12 -9 22 3 4 36 -2 72 -13 79 -22 108 -24 119 -6 22 36 105
46 111 14z m11502 -67 c29 0 43 -19 34 -45 -4 -9 3 -19 19 -26 39 -18 39 -35
1 -61 -18 -12 -34 -30 -35 -38 0 -10 -2 -11 -6 -2 -2 6 -9 10 -14 6 -44 -27
109 -26 181 1 32 12 38 11 58 -6 28 -22 22 -35 -20 -44 -28 -7 -30 -9 -15 -20
9 -7 17 -17 17 -22 0 -6 12 -9 28 -6 28 4 138 3 182 -1 38 -4 110 -28 110 -37
0 -14 -35 -18 -75 -9 -21 5 -67 6 -102 3 -40 -4 -67 -2 -76 6 -14 11 -65 0
-92 -19 -5 -4 -22 -10 -37 -12 -22 -4 -28 -1 -30 16 -2 17 -9 21 -37 18 -43
-3 -120 -51 -121 -74 0 -10 12 -26 27 -35 15 -10 36 -26 45 -35 10 -10 25 -18
33 -18 8 0 15 -4 15 -10 0 -5 -18 -10 -40 -10 -33 0 -40 3 -40 20 0 11 -6 20
-14 20 -8 0 -18 9 -21 20 -4 12 -15 20 -29 20 -13 0 -34 8 -47 18 -65 49 -116
71 -145 62 -16 -4 -25 -9 -20 -9 18 -2 -27 -40 -55 -46 -40 -9 -66 1 -65 26 1
18 -6 22 -44 24 -25 1 -68 11 -96 20 -43 15 -51 22 -51 42 0 14 -5 29 -10 34
-11 11 -85 15 -101 5 -7 -4 -36 -1 -66 6 -48 11 -53 14 -45 30 5 10 18 18 29
18 10 0 22 5 25 10 3 6 30 10 58 10 41 0 55 -4 65 -20 15 -25 40 -25 72 0 14
11 33 20 42 20 9 0 20 5 23 10 3 6 19 10 35 10 23 0 28 4 23 16 -5 14 -1 16
33 10 65 -11 87 -9 129 10 22 9 54 17 72 15 31 -2 32 -1 22 31 -13 47 -13 47
36 59 25 6 48 15 51 20 3 5 17 0 31 -11 14 -11 38 -20 53 -20z m-14391 -77
c12 -14 27 -23 34 -20 8 3 20 1 27 -3 9 -5 -4 -14 -40 -27 -53 -18 -73 -39
-50 -53 19 -11 7 -45 -17 -48 -12 -2 -27 5 -35 15 -9 13 -27 18 -63 18 -72 1
-105 12 -105 34 0 16 -6 19 -31 16 -17 -3 -39 -7 -48 -10 -15 -5 -61 23 -61
37 0 5 82 20 117 23 6 0 20 8 31 18 16 15 24 16 39 7 13 -8 27 -8 56 2 20 7
57 14 82 15 37 2 48 -2 64 -24z m11809 -20 c17 -4 20 -8 12 -18 -8 -10 -3 -16
23 -24 38 -13 67 -6 67 16 0 10 9 13 28 11 22 -2 26 -7 24 -28 -5 -34 -12 -40
-58 -47 -21 -3 -47 -14 -57 -24 -10 -11 -21 -19 -25 -20 -4 0 -36 -2 -72 -4
-36 -2 -90 -6 -120 -9 -30 -2 -46 -2 -36 1 11 3 38 25 61 49 24 24 58 51 76
59 l34 16 -58 -5 c-70 -6 -87 -1 -87 26 0 20 4 20 83 14 45 -4 92 -10 105 -13z
m-24858 -73 c0 -5 -28 -23 -62 -39 -35 -17 -74 -37 -88 -45 -48 -28 -269 -75
-317 -68 -24 4 -32 22 -10 22 6 0 43 16 81 35 38 19 94 41 125 50 31 9 63 19
71 22 28 11 45 15 100 23 82 11 100 11 100 0z m32563 -27 c-2 -9 8 -13 30 -12
30 1 31 1 7 9 l-25 8 26 1 c30 1 119 -53 119 -73 0 -21 -54 -36 -126 -36 -35
0 -84 -5 -109 -12 -42 -11 -46 -11 -71 12 -14 14 -35 38 -46 53 l-20 28 68 -3
c47 -2 68 1 71 10 3 6 -3 12 -12 12 -9 0 -13 5 -10 11 10 15 101 7 98 -8z
m-21403 -88 c0 -24 46 -48 82 -42 76 13 98 20 98 28 0 5 5 9 10 9 17 0 11 -57
-7 -76 -10 -9 -18 -22 -19 -28 0 -6 -2 -19 -2 -28 -1 -10 -9 -18 -17 -18 -8 0
-15 -3 -15 -8 0 -4 -9 -13 -20 -20 -14 -9 -26 -9 -44 -1 -19 9 -37 6 -97 -15
-75 -27 -148 -36 -119 -15 12 9 11 9 -5 4 -11 -4 -31 -10 -45 -12 -22 -5 -23
-4 -8 8 21 18 88 107 88 118 0 5 20 14 45 21 48 13 70 39 62 71 -3 10 -1 19 4
19 5 0 9 -7 9 -15z m-3957 -115 c10 -16 22 -30 28 -30 5 0 9 -6 9 -14 0 -11
-19 -14 -92 -14 -84 1 -93 -1 -101 -21 -13 -27 -38 -34 -70 -20 -21 10 -29 9
-42 -5 -20 -20 -45 -21 -45 -2 0 8 12 17 28 21 15 3 35 14 45 23 9 8 38 17 62
18 55 3 122 33 128 57 8 26 31 20 50 -13z m-1145 -185 c6 -3 12 -12 12 -20 0
-9 -6 -22 -12 -29 -22 -21 -85 -56 -101 -56 -8 0 -29 -8 -47 -17 -29 -17 -31
-17 -41 0 -5 9 -17 17 -25 17 -33 0 23 40 62 44 62 6 75 14 61 37 -6 10 -19
19 -27 20 -8 1 -4 5 10 9 23 7 76 5 108 -5z m1762 -235 c0 -5 20 -10 44 -10
72 0 71 -31 -1 -35 -19 -1 -39 -10 -47 -20 -11 -16 -29 -19 -115 -21 -91 -2
-101 0 -101 16 0 18 35 30 86 30 12 0 30 7 38 16 9 8 16 13 16 10 0 -3 15 1
33 9 39 17 47 18 47 5z m9341 -192 c12 -27 19 -32 42 -30 22 3 27 -1 27 -17 0
-16 -6 -21 -27 -21 -16 0 -42 -9 -59 -19 -31 -19 -134 -26 -134 -9 0 4 10 8
23 8 17 0 19 2 7 9 -8 6 -17 8 -21 5 -4 -2 -10 0 -14 6 -3 5 0 10 8 10 7 0 20
11 27 24 9 17 23 26 44 28 22 2 31 8 30 21 -3 30 31 19 47 -15z m14337 -239
c2 -5 10 -9 18 -9 7 0 39 -12 71 -26 l58 -25 -23 -19 c-23 -19 -137 -48 -204
-53 -39 -2 -54 -17 -18 -17 11 0 20 -5 20 -11 0 -6 -12 -9 -27 -7 -19 2 -27 8
-25 19 1 9 -5 20 -14 23 -26 10 0 33 46 41 l39 7 -16 33 c-23 49 -12 69 35 60
20 -4 39 -11 40 -16z m-19413 -39 c10 -11 15 -20 10 -20 -4 0 -1 -7 6 -16 12
-14 9 -20 -16 -41 -17 -13 -43 -35 -60 -49 -21 -17 -38 -24 -55 -20 -14 3 -40
0 -57 -7 -39 -13 -52 -4 -30 21 10 10 17 25 17 33 0 16 53 69 69 69 15 0 14
-17 -1 -23 -7 -2 -10 -8 -6 -12 16 -17 67 17 78 51 13 39 20 41 45 14z m10555
-55 c30 -2 129 -6 220 -10 91 -3 194 -8 230 -12 l65 -5 -55 -15 c-30 -7 -61
-20 -70 -28 -8 -7 -27 -17 -42 -20 -16 -4 -28 -14 -28 -21 0 -23 -26 -27 -80
-14 -38 9 -50 17 -50 30 0 23 -37 51 -57 43 -11 -4 -10 -9 7 -20 28 -20 25
-33 -8 -33 -20 0 -39 12 -65 40 -28 30 -44 40 -69 41 -18 0 -55 9 -83 19 l-50
19 40 -5 c22 -3 65 -7 95 -9z m3949 9 c44 -9 39 -24 -9 -24 -36 0 -40 -3 -40
-25 0 -18 -7 -26 -26 -31 -29 -8 -170 1 -198 12 -17 6 -16 8 5 20 13 7 32 13
41 14 11 0 15 5 12 15 -7 18 37 20 101 5 31 -7 43 -6 55 5 16 17 17 17 59 9z
m-21144 -244 c0 -11 -13 -15 -54 -15 -50 0 -55 -2 -63 -28 -8 -21 -19 -30 -54
-38 -46 -12 -51 -18 -34 -35 8 -8 6 -15 -5 -24 -13 -11 -19 -11 -32 3 -15 15
-17 15 -28 -6 -8 -17 -24 -24 -68 -31 -45 -7 -66 -16 -94 -42 -41 -39 -43 -40
-43 -19 0 14 -4 14 -36 0 -20 -8 -47 -15 -60 -15 -16 0 -28 -8 -36 -25 -12
-26 -32 -33 -43 -15 -3 6 -22 10 -42 10 -33 0 -35 1 -29 28 8 31 31 52 59 52
10 0 26 8 35 19 19 21 137 73 146 64 3 -4 24 8 45 25 46 37 45 37 66 16 11
-12 19 -14 27 -6 6 6 17 8 24 5 8 -3 14 0 14 7 0 8 9 11 26 7 16 -3 31 2 42
13 9 10 43 25 75 34 31 9 57 21 57 26 0 12 29 17 70 10 22 -3 35 -11 35 -20z
m13706 -73 c33 -22 42 -52 23 -71 -19 -19 -18 -22 9 -31 18 -6 13 -9 -29 -19
-28 -6 -68 -25 -91 -43 -23 -18 -46 -33 -52 -33 -7 0 -25 -10 -41 -21 -22 -17
-36 -20 -62 -14 -18 4 -62 9 -98 11 -36 3 -84 14 -107 24 -47 22 -93 61 -93
80 0 19 31 39 62 40 14 0 28 5 30 10 4 13 68 -7 68 -21 0 -5 -9 -17 -20 -26
-28 -24 -25 -33 10 -33 24 0 33 6 40 26 7 16 16 24 24 21 16 -6 88 13 97 26 3
4 23 10 45 11 21 2 41 5 44 6 3 1 9 2 13 1 5 -1 6 3 2 9 -3 5 -2 10 4 10 6 0
8 6 6 13 -5 12 49 43 75 42 8 0 27 -8 41 -18z m-7799 -96 c4 -11 68 -18 83 -9
32 18 66 17 85 -2 11 -11 24 -19 28 -16 5 3 14 0 22 -6 13 -8 12 -9 -1 -5 -11
4 -28 -8 -49 -33 -25 -30 -44 -41 -84 -51 -28 -6 -63 -20 -77 -30 -42 -29 -76
-34 -88 -11 -5 10 -7 28 -4 40 3 13 1 22 -6 22 -6 0 -11 9 -11 20 0 11 5 20
10 20 6 0 19 9 30 20 11 11 27 20 36 20 10 0 14 6 10 15 -3 8 -1 15 3 15 5 0
11 -4 13 -9z m19585 -136 c140 -50 289 -69 313 -40 10 12 9 18 -5 31 -23 24
-5 35 37 23 39 -10 60 -30 40 -37 -22 -7 -12 -19 20 -26 31 -6 31 -6 12 -27
-13 -14 -27 -19 -47 -16 -41 6 -42 -7 -2 -42 39 -34 42 -41 19 -41 -8 0 -12
-4 -9 -10 3 -5 27 -10 53 -11 26 0 56 -4 67 -9 17 -7 14 -10 -26 -28 -46 -20
-98 -19 -100 2 -1 6 -2 17 -3 25 0 8 -11 15 -24 16 -12 1 -28 8 -35 15 -10 10
-9 12 6 7 9 -4 17 -2 17 3 0 5 -40 9 -90 8 -68 -1 -98 4 -127 18 -32 16 -63
19 -193 20 -152 1 -219 12 -205 35 4 5 32 9 63 9 61 -2 178 12 188 23 7 7 -6
21 -50 55 -26 20 -27 22 -8 22 11 0 52 -11 89 -25z m-4462 -85 c22 -11 47 -19
55 -20 8 0 30 -9 48 -20 l34 -21 -26 -25 c-25 -25 -27 -26 -78 -13 -71 17
-105 35 -124 64 -13 20 -14 28 -4 40 17 20 47 18 95 -5z m-30920 -130 c-17
-28 -93 -64 -139 -67 -28 -2 -52 -7 -55 -11 -11 -17 -57 -36 -121 -49 -35 -7
-83 -25 -106 -38 -46 -27 -57 -24 -47 14 9 40 22 51 60 51 19 0 47 9 62 19 15
11 40 23 57 27 16 4 40 18 53 31 22 22 29 23 101 17 49 -4 84 -3 96 4 24 14
47 15 39 2z m2279 -169 c8 -12 -32 -37 -72 -46 -19 -4 -49 -20 -67 -36 -19
-17 -59 -36 -92 -45 -65 -18 -167 -24 -180 -10 -9 9 29 39 56 42 46 6 138 38
159 55 14 10 31 19 38 19 8 0 23 6 34 12 16 10 24 10 41 0 17 -11 24 -11 42 2
26 18 34 19 41 7z m5884 -81 c27 -22 23 -34 -19 -55 -24 -13 -28 -20 -23 -40
5 -20 3 -25 -12 -23 -40 3 -52 -2 -47 -20 5 -21 -25 -52 -35 -35 -14 21 -60
23 -106 3 -46 -19 -46 -19 -46 0 0 13 -9 22 -25 26 -46 12 -25 44 30 44 12 0
28 7 35 15 11 13 7 15 -25 15 -32 0 -36 2 -25 15 14 17 115 21 125 5 11 -18
70 3 103 37 38 38 39 39 70 13z m-888 -67 c9 -12 20 -19 24 -16 3 4 6 1 6 -5
0 -6 -9 -14 -21 -17 -15 -5 -18 -10 -10 -18 14 -14 14 -37 0 -37 -6 0 -22 -9
-36 -20 -23 -18 -36 -19 -141 -14 -64 3 -121 9 -128 15 -6 5 -26 10 -45 13
-25 2 -35 9 -37 24 -2 11 -10 26 -18 32 -24 21 -16 26 59 39 39 7 81 17 92 22
11 5 69 8 128 6 99 -2 110 -4 127 -24z m4872 -473 c5 -15 140 -15 165 0 20 13
24 12 37 -5 17 -23 21 -45 7 -45 -5 0 -23 -14 -40 -31 -27 -27 -31 -36 -25
-65 5 -27 3 -34 -9 -34 -9 0 -17 10 -19 23 -2 16 -10 22 -28 23 -14 0 -30 1
-37 2 -6 1 -23 27 -37 57 -18 41 -30 55 -45 55 -21 0 -27 11 -14 23 10 10 41
8 45 -3z m-2450 -94 c7 6 64 -21 70 -33 3 -5 3 -2 1 6 -3 11 5 12 34 7 21 -3
50 -6 66 -6 22 0 27 -4 27 -25 0 -16 6 -25 16 -25 14 0 14 -3 4 -15 -11 -13
-9 -15 13 -15 24 0 42 -23 32 -41 -3 -4 -21 -11 -40 -15 -24 -4 -35 -12 -35
-23 0 -10 -11 -28 -25 -41 -31 -29 -32 -56 -3 -71 21 -11 21 -12 3 -25 -23
-17 -57 -18 -73 -2 -8 8 -15 8 -26 -1 -11 -10 -19 -9 -38 1 -13 7 -27 19 -31
26 -4 6 -18 10 -30 7 -12 -3 -35 -1 -52 3 -23 7 -29 14 -27 31 3 19 0 21 -22
15 -20 -5 -26 -2 -26 10 0 9 5 16 10 16 6 0 10 -3 10 -7 0 -5 14 -8 30 -8 17
0 30 3 30 6 0 10 -31 20 -41 14 -5 -4 -6 1 -3 9 3 8 16 19 27 23 19 6 17 8
-13 13 -26 4 -37 1 -41 -10 -6 -13 -8 -12 -14 3 -10 23 2 50 19 44 8 -3 20 1
26 9 7 8 23 14 36 14 18 0 24 5 24 23 0 13 5 28 12 35 8 8 8 15 -2 27 -10 12
-10 18 0 30 12 14 15 14 30 0 9 -8 19 -12 22 -9z m18527 -203 c21 -14 22 -17
7 -25 -9 -5 -44 -8 -79 -7 -34 0 -89 1 -123 0 -49 -1 -64 3 -79 18 -10 12 -15
27 -11 36 5 14 17 16 80 10 45 -4 81 -3 92 3 20 11 65 -3 113 -35z m-3869
-118 c9 -11 10 -19 3 -26 -8 -8 -2 -19 18 -39 l29 -27 -40 -28 c-22 -15 -40
-32 -40 -36 0 -16 -42 -10 -86 12 -51 24 -66 41 -66 73 0 15 -7 26 -19 29 -11
3 -19 10 -19 16 0 7 8 7 25 1 20 -8 36 -4 73 14 55 28 104 32 122 11z m3790 0
c31 -18 92 -19 108 -3 9 9 12 9 12 -1 0 -7 5 -9 10 -6 12 8 3 -43 -12 -61 -8
-11 56 -84 74 -84 4 0 8 -4 8 -10 0 -5 -7 -10 -15 -10 -26 0 -16 -19 13 -26
15 -4 38 -13 51 -22 19 -11 43 -13 110 -9 90 7 109 1 155 -45 12 -12 33 -18
62 -18 71 0 86 -13 80 -67 -4 -38 -1 -51 20 -78 25 -33 23 -45 -8 -45 -10 0
-18 -5 -18 -11 0 -7 -7 -17 -16 -24 -18 -13 -18 -14 39 -56 16 -12 26 -27 23
-35 -3 -8 0 -14 6 -14 7 0 23 -11 37 -24 31 -28 119 -42 128 -20 3 10 21 12
63 10 74 -5 87 -12 64 -37 -13 -15 -14 -22 -5 -33 9 -10 9 -16 1 -21 -8 -5 -5
-12 9 -21 15 -11 19 -22 14 -49 -5 -30 -2 -36 20 -44 32 -12 46 -38 45 -79 -1
-32 -3 -33 -61 -46 -20 -5 -27 -11 -23 -21 8 -21 -57 -20 -78 0 -9 9 -33 15
-64 15 -35 0 -57 6 -76 21 -22 18 -29 19 -42 8 -14 -12 -14 -15 6 -31 38 -31
22 -53 -40 -56 -30 -2 -57 -7 -60 -12 -10 -16 -93 21 -137 60 -41 39 -53 44
-123 54 -134 20 -190 32 -189 41 0 6 -11 11 -23 13 -40 5 -69 25 -66 45 2 10
21 28 43 40 22 12 43 26 46 31 9 11 74 -1 113 -21 26 -14 28 -17 14 -27 -15
-11 -15 -13 1 -23 13 -8 22 -8 29 -1 14 14 66 1 88 -23 20 -22 40 -24 59 -6
11 11 33 7 129 -25 111 -37 117 -38 141 -22 19 12 36 15 72 9 40 -6 45 -5 35
8 -14 17 -6 27 21 27 32 0 11 13 -25 15 -22 2 -41 13 -60 36 l-29 34 -16 -22
c-8 -13 -24 -23 -34 -23 -10 0 -21 -5 -24 -11 -4 -6 -14 -8 -22 -5 -11 4 -13
1 -8 -15 6 -18 5 -20 -14 -10 -12 7 -21 16 -21 22 0 5 -11 14 -25 19 -14 5
-25 15 -24 22 0 10 2 10 6 0 3 -9 12 -3 24 17 10 17 25 31 33 31 7 0 28 6 45
13 l32 13 -24 26 c-15 17 -39 28 -69 32 -53 8 -81 31 -57 47 9 7 -3 9 -41 8
-35 -2 -79 6 -119 19 -35 12 -83 22 -105 22 -23 0 -57 5 -77 10 -32 9 -40 7
-61 -11 -22 -19 -35 -22 -117 -20 -91 2 -146 15 -135 32 3 5 16 9 28 9 16 0
26 7 29 22 8 28 -10 62 -26 50 -22 -17 -61 -21 -107 -11 -25 6 -63 12 -84 14
-56 6 -74 14 -57 25 8 4 23 7 33 5 21 -5 22 3 3 29 -13 17 -16 17 -46 2 -56
-28 -98 -16 -113 32 -9 26 -69 62 -105 62 -35 0 -71 15 -71 30 0 6 20 10 44
10 48 0 66 14 69 54 2 31 4 32 35 24 19 -5 22 -11 17 -27 -4 -12 -2 -21 4 -21
6 0 11 -6 11 -14 0 -13 15 -15 62 -7 4 0 0 13 -8 29 -33 64 -6 109 64 103 18
-1 32 2 32 8 0 6 -5 11 -11 11 -5 0 -8 4 -5 9 3 4 -6 19 -19 31 -14 13 -25 32
-25 42 0 20 11 21 135 19 64 -1 68 0 51 14 -16 12 -17 15 -4 15 8 0 21 7 28
15 16 19 77 19 110 0z m936 -21 c19 -9 34 -20 34 -24 0 -13 -46 -20 -80 -13
-31 6 -33 5 -27 -19 4 -14 1 -32 -7 -43 -10 -14 -11 -28 -4 -56 9 -33 15 -38
54 -48 25 -7 43 -17 41 -24 -1 -7 7 -11 18 -10 11 1 24 -5 28 -13 4 -8 15 -14
24 -14 14 0 14 2 -3 16 -19 15 -19 16 1 8 35 -13 95 -16 108 -6 12 10 151 11
161 1 3 -3 -4 -24 -16 -48 -19 -39 -23 -42 -57 -39 -26 2 -39 9 -46 25 -13 31
-40 35 -171 27 -133 -8 -148 -17 -113 -65 l22 -32 -59 5 c-44 3 -70 12 -103
33 -39 26 -42 30 -25 40 37 21 74 70 74 98 0 21 -8 32 -30 45 -37 21 -34 36 8
40 28 3 31 5 21 23 -11 21 -4 59 12 59 5 0 9 6 9 13 0 12 45 32 78 36 8 0 29
-6 48 -15z m-23034 -18 c18 5 20 3 16 -21 -4 -20 -1 -28 14 -34 18 -6 18 -8
-8 -36 l-27 -30 -13 35 c-7 19 -13 29 -13 22 -1 -7 -8 -20 -16 -29 -24 -23
-12 -38 29 -37 24 1 36 -3 36 -12 0 -8 -6 -14 -14 -14 -7 0 -16 -9 -19 -20 -3
-11 -11 -20 -19 -20 -7 0 -19 -14 -26 -32 -9 -25 -14 -30 -24 -20 -17 17 -52
15 -92 -7 -18 -11 -47 -22 -62 -24 -74 -13 -91 -20 -99 -40 -6 -14 -24 -26
-47 -31 -26 -6 -38 -15 -38 -27 0 -25 -21 -38 -53 -32 -19 4 -26 10 -23 19 3
8 1 14 -5 14 -5 0 -12 -7 -15 -15 -4 -8 -13 -15 -20 -15 -16 0 -41 -46 -31
-57 4 -3 32 4 63 16 31 12 59 19 61 17 3 -2 -5 -18 -18 -35 -18 -24 -27 -29
-50 -24 -21 4 -30 0 -40 -18 l-12 -23 -8 22 c-8 22 -10 22 -39 7 -34 -18 -40
-30 -10 -22 23 6 37 -10 22 -25 -6 -6 -29 -14 -51 -18 -35 -6 -41 -5 -39 9 2
9 -4 16 -12 16 -8 0 -16 -9 -16 -20 -1 -11 -2 -26 -3 -34 -1 -10 -10 -12 -32
-7 -42 8 -121 -26 -113 -48 3 -9 2 -16 -4 -16 -6 0 -12 6 -15 13 -3 9 -8 9
-16 1 -9 -8 -9 -18 -1 -39 13 -35 4 -45 -49 -55 -35 -6 -41 -4 -46 11 -5 16
-10 17 -28 7 -12 -6 -25 -15 -28 -20 -7 -11 -87 -18 -91 -7 -3 9 -95 -13 -128
-31 -11 -6 -30 -8 -40 -5 -13 4 -30 -1 -47 -15 -44 -34 -115 -62 -127 -50 -8
8 -6 14 7 21 23 13 22 25 -3 32 -40 10 -39 87 1 87 16 0 19 -4 14 -20 -6 -18
-5 -19 22 -5 25 13 29 13 45 -5 21 -22 27 -24 45 -12 9 6 7 12 -8 22 -12 8
-27 20 -34 27 -7 6 -28 16 -46 21 -19 6 -28 11 -20 11 8 1 19 9 26 18 11 14
31 17 123 18 61 0 113 2 116 5 2 3 14 27 26 54 20 48 21 49 36 28 8 -12 28
-29 45 -37 25 -14 29 -14 29 -1 0 8 20 24 44 34 24 11 47 25 50 31 4 6 24 18
43 26 20 9 66 40 103 70 37 30 75 55 84 55 9 0 16 4 16 10 0 5 15 20 34 32 32
21 33 23 19 45 -10 15 -25 23 -42 23 -15 0 -30 3 -34 6 -10 11 15 52 39 63 13
6 24 17 24 25 0 22 49 76 69 76 9 0 27 7 39 16 12 8 26 13 30 10 4 -2 18 11
31 30 23 33 51 46 51 22 0 -7 -12 -25 -27 -41 -19 -20 -22 -28 -11 -24 10 3
20 2 23 -4 4 -5 21 -7 38 -4 25 5 35 2 44 -14 11 -17 10 -19 -1 -15 -8 3 -17
1 -21 -5 -3 -6 -28 -11 -56 -11 -27 0 -49 -5 -49 -10 0 -6 10 -8 23 -6 12 3
55 8 95 10 41 3 80 10 87 16 8 7 23 9 35 5 12 -4 20 -2 20 5 0 6 8 14 18 17 9
4 28 15 41 25 13 10 32 18 42 18 10 0 25 11 34 23 17 26 61 51 75 42 5 -3 12
0 17 7 5 10 8 8 11 -5 3 -13 9 -16 24 -11z m22615 -56 c2 0 2 -5 1 -12 -2 -6
20 -18 47 -26 49 -15 50 -15 20 -23 -16 -4 -43 -11 -60 -16 -30 -9 -30 -10 -7
-22 26 -14 29 -29 6 -38 -19 -7 -64 16 -64 33 0 7 -6 15 -12 17 -7 3 -1 6 15
6 30 1 35 12 13 30 -11 9 -24 7 -58 -9 -32 -15 -57 -19 -96 -16 -58 5 -72 11
-72 31 0 10 9 11 38 4 60 -14 79 -11 85 12 5 17 11 20 35 14 24 -5 30 -2 35
14 4 18 9 19 38 11 19 -6 35 -10 36 -10z m-5642 -14 c45 -2 67 -6 128 -23 35
-9 6 -16 -61 -14 -43 1 -96 -5 -145 -18 -90 -25 -126 -26 -133 -7 -3 8 -17 17
-30 20 -17 5 -24 13 -22 24 2 13 18 18 68 23 36 4 83 4 105 2 22 -3 63 -6 90
-7z m8035 -121 c8 -6 43 -19 78 -28 57 -16 66 -16 95 -2 43 20 91 8 95 -25 2
-13 17 -37 33 -53 17 -16 28 -34 26 -41 -5 -13 -126 -10 -163 4 -20 8 -24 6
-24 -8 0 -11 20 -29 55 -47 55 -30 68 -45 40 -45 -9 0 -18 -7 -22 -16 -4 -12
-14 -14 -42 -9 -56 10 -123 45 -117 61 3 8 -1 14 -10 14 -8 0 -32 9 -54 20
-22 11 -48 20 -58 20 -10 0 -29 11 -42 25 -13 14 -28 25 -34 25 -19 1 -73 50
-55 50 8 0 25 11 37 25 17 20 28 23 52 18 25 -4 34 -1 46 15 15 22 34 21 64
-3z m-19175 -77 c-1 -37 0 -38 35 -38 52 0 85 -42 43 -53 -10 -3 -1 -6 20 -7
51 -3 54 -4 62 -12 11 -11 -27 -46 -57 -53 -36 -9 -35 -18 2 -32 17 -6 30 -19
30 -28 0 -15 -7 -17 -40 -12 -36 5 -40 3 -40 -16 -1 -22 -1 -22 -16 -2 -9 12
-11 21 -4 23 5 2 10 8 10 14 0 13 -56 68 -69 68 -5 0 -23 -14 -40 -32 -25 -26
-32 -30 -45 -19 -16 13 -56 0 -56 -20 0 -5 -11 -14 -25 -19 -25 -10 -39 -19
-76 -52 -29 -27 -24 -48 10 -48 29 0 57 -21 44 -33 -3 -4 -14 -7 -24 -7 -9 0
-19 -6 -22 -12 -3 -10 -7 -10 -18 -1 -8 6 -25 9 -39 6 -20 -3 -29 -14 -39 -46
-11 -37 -10 -43 5 -54 10 -7 23 -9 33 -4 23 12 74 8 78 -6 2 -6 -5 -14 -16
-18 -11 -3 -25 -20 -31 -38 -6 -18 -25 -43 -42 -56 -24 -20 -35 -22 -56 -15
-17 6 -28 18 -30 32 -3 20 -30 31 -44 17 -9 -10 19 -77 36 -87 9 -5 16 -6 16
-3 0 11 55 -23 78 -48 23 -25 23 -26 4 -36 -11 -6 -22 -7 -26 -3 -4 3 -27 7
-51 7 -37 0 -42 -2 -34 -17 10 -18 -5 -36 -16 -18 -10 17 -25 11 -25 -9 0 -11
-8 -22 -17 -24 -10 -3 10 -6 45 -7 34 -2 68 -3 75 -4 6 -1 11 7 9 17 -6 33
117 64 145 36 16 -16 122 11 129 33 3 10 23 32 45 50 25 20 39 40 39 55 0 18
5 23 25 23 20 0 25 5 25 23 0 31 8 38 30 25 23 -15 78 -2 61 15 -22 22 -13 40
18 34 19 -4 33 -1 41 8 6 8 18 11 25 9 8 -3 23 5 35 18 24 28 68 27 94 -1 14
-16 9 -20 -61 -56 -59 -31 -79 -47 -90 -72 -7 -18 -20 -33 -29 -33 -8 0 -12
-4 -9 -10 8 -12 75 -13 75 -1 0 9 74 6 91 -4 5 -4 9 -17 9 -31 0 -27 -24 -33
-34 -8 -3 9 -15 14 -28 12 -17 -2 -27 -15 -38 -45 -14 -42 -32 -54 -45 -32 -4
5 -18 14 -31 19 -29 11 -32 30 -4 30 12 0 20 7 20 16 0 12 -3 14 -12 6 -7 -5
-27 -13 -45 -16 -17 -4 -37 -14 -44 -22 -6 -8 -27 -14 -46 -14 -19 0 -41 -7
-49 -15 -9 -8 -29 -15 -45 -15 -31 0 -40 -25 -17 -48 9 -9 7 -17 -8 -33 -19
-22 -19 -22 1 -14 11 4 37 8 58 9 25 1 42 7 48 18 21 38 214 64 240 32 12 -15
-44 -64 -73 -64 -11 0 -39 -14 -63 -31 -47 -34 -39 -33 -168 -11 -46 9 -49 8
-58 -16 -5 -14 -7 -27 -4 -30 7 -7 42 -13 77 -12 25 0 58 -34 45 -47 -3 -2
-33 -6 -67 -8 -34 -3 -70 -7 -80 -10 -21 -7 -43 -51 -43 -90 -1 -29 1 -30 39
-26 47 4 66 18 59 42 -5 16 -1 19 27 18 29 -2 30 -2 8 -8 -17 -4 -4 -7 40 -11
62 -5 65 -6 68 -32 2 -16 -4 -34 -16 -46 -19 -19 -44 -97 -34 -107 3 -3 22 -5
43 -5 29 0 37 4 33 14 -7 18 42 56 71 56 12 0 34 -9 48 -20 21 -17 26 -18 31
-5 7 20 43 19 54 -1 8 -14 15 -15 43 -6 19 6 56 14 83 18 l49 7 -7 -29 c-4
-16 -15 -38 -25 -49 -17 -19 -34 -55 -27 -55 3 0 12 -3 22 -7 12 -4 15 -3 10
5 -5 9 9 12 48 12 31 0 56 3 56 8 0 4 10 12 23 17 30 13 28 27 -6 43 -22 11
-27 19 -25 40 2 22 10 28 43 35 22 4 55 7 74 4 27 -3 30 -1 17 8 -23 17 -20
39 7 50 12 6 23 20 25 31 2 16 15 25 47 34 48 13 65 8 65 -20 0 -10 7 -20 15
-24 23 -8 18 -48 -10 -78 -14 -15 -25 -34 -25 -41 0 -8 -14 -17 -32 -21 -38
-7 -118 -39 -118 -46 0 -3 5 -12 11 -20 8 -11 12 -12 16 -2 7 17 43 15 43 -3
0 -8 -8 -24 -17 -35 -14 -15 -25 -18 -54 -14 -32 5 -38 3 -44 -15 -9 -30 -38
-42 -83 -35 -28 4 -41 2 -51 -9 -10 -13 -9 -17 8 -27 25 -13 29 -65 7 -77 -14
-8 -16 -12 -16 -33 0 -14 -37 -12 -47 3 -4 6 -6 19 -5 27 1 10 -15 21 -50 33
-82 27 -113 30 -147 13 -32 -17 -116 -22 -106 -7 3 5 -9 11 -27 13 -29 3 -33
6 -30 28 2 14 3 42 3 63 -1 33 2 37 18 32 13 -4 20 0 24 15 4 17 0 20 -31 21
-21 1 -46 3 -57 3 -30 2 -37 -4 -25 -19 7 -8 9 -19 5 -25 -11 -18 -35 -11 -45
15 -16 41 -28 28 -26 -29 1 -53 2 -54 27 -49 22 4 28 1 34 -17 4 -13 3 -25 -4
-29 -7 -5 -4 -13 9 -24 11 -9 20 -13 20 -9 0 11 39 12 45 1 4 -5 -1 -12 -9
-15 -16 -6 -23 -26 -8 -22 20 6 72 -13 72 -26 0 -13 -15 -29 -30 -32 -3 0 -27
-4 -55 -9 -33 -5 -55 -16 -68 -31 -10 -13 -34 -26 -53 -30 -25 -5 -32 -10 -25
-17 23 -23 12 -36 -26 -31 -35 4 -36 4 -13 -7 47 -21 54 -25 58 -37 2 -7 -5
-15 -15 -18 -10 -3 -26 -10 -35 -15 -10 -5 -28 -9 -40 -9 -41 0 -68 -12 -68
-30 0 -9 -9 -25 -20 -35 -11 -10 -20 -28 -20 -39 -1 -30 -25 -58 -47 -54 -10
1 -29 -6 -43 -16 -14 -11 -18 -16 -7 -13 9 4 17 3 17 -2 0 -16 -41 -20 -47 -5
-3 8 -9 14 -15 14 -5 0 -7 -4 -4 -9 9 -14 -27 -39 -66 -46 -21 -4 -38 -11 -38
-15 0 -10 -51 -7 -67 3 -9 5 -13 3 -13 -7 0 -9 5 -16 11 -16 5 0 7 -4 4 -10
-3 -5 -2 -10 4 -10 5 0 11 4 13 10 4 13 93 18 93 5 0 -5 -13 -10 -30 -10 -22
0 -33 -7 -43 -27 -14 -31 -42 -43 -78 -34 -21 6 -24 12 -24 51 0 24 -5 47 -11
50 -17 11 -24 -5 -11 -26 10 -16 10 -24 1 -35 -9 -11 -9 -17 1 -29 10 -12 10
-15 -3 -15 -30 0 -37 -24 -18 -56 21 -35 80 -66 129 -69 21 -1 38 -9 48 -24
12 -16 19 -20 27 -12 6 6 19 11 29 11 10 0 32 9 50 20 18 11 47 20 63 20 17 0
43 7 59 15 26 14 30 13 56 -5 15 -11 35 -20 43 -20 10 0 16 -13 19 -36 3 -27
-2 -44 -22 -71 -34 -45 -84 -63 -177 -63 -44 0 -73 -4 -73 -10 0 -6 -11 -23
-24 -37 -19 -20 -30 -24 -50 -19 -33 8 -34 32 -1 40 17 4 25 13 25 27 0 20 -4
21 -51 17 -47 -5 -55 -2 -102 33 -51 39 -82 89 -74 121 3 10 -5 23 -19 33 -15
10 -24 25 -24 42 0 21 -3 24 -12 15 -18 -18 -78 -16 -78 3 0 12 19 25 56 40 1
0 4 9 8 20 5 17 0 23 -29 34 -19 7 -35 19 -35 27 0 18 -11 18 -36 -1 -10 -8
-34 -15 -53 -15 l-35 0 32 28 c18 16 32 34 32 40 0 21 18 21 45 0 27 -21 29
-21 57 -5 16 9 37 17 46 18 9 0 4 5 -12 11 l-28 10 4 74 c5 72 4 74 -18 74
-25 0 -42 -19 -27 -29 14 -8 26 -85 18 -111 -8 -25 -55 -27 -78 -2 -28 32 -25
64 10 88 24 16 29 24 20 33 -15 15 -48 13 -71 -4 -27 -21 -41 -19 -70 9 -29
26 -33 42 -13 49 6 3 1 6 -12 6 -13 1 -22 -2 -18 -5 3 -3 -5 -18 -18 -32 -30
-32 -24 -42 23 -42 45 -1 86 -34 108 -86 14 -33 14 -38 -2 -56 -23 -24 -67
-21 -72 6 -2 10 2 22 8 26 15 9 4 30 -16 30 -8 0 -14 4 -14 9 0 5 -9 12 -20
16 -52 17 -71 15 -103 -9 -33 -25 -87 -27 -87 -3 0 7 -4 7 -12 -1 -17 -17 -31
-15 -55 7 -26 25 -123 35 -108 11 3 -5 3 -15 -1 -22 -5 -8 -11 -6 -20 7 -10
13 -20 16 -41 11 -15 -4 -53 -9 -85 -12 -48 -5 -59 -3 -77 15 -11 11 -34 27
-50 36 -30 15 -42 35 -21 35 16 0 11 28 -7 38 -9 5 -32 8 -52 5 -27 -4 -42 0
-60 16 l-23 20 -44 -25 c-32 -19 -51 -24 -73 -19 -22 5 -30 2 -35 -12 -7 -17
-8 -17 -17 0 -12 20 -42 23 -56 5 -6 -7 -9 -32 -8 -56 1 -33 -3 -46 -17 -53
-23 -12 -23 -45 -1 -57 14 -9 14 -10 -6 -17 -12 -4 -26 -18 -32 -32 -9 -24
-10 -24 -34 -9 -13 9 -31 16 -40 16 -18 0 -21 19 -2 21 6 1 19 2 27 3 8 0 17
12 18 26 2 14 10 29 18 33 15 9 19 27 6 27 -5 0 -19 -9 -32 -20 -13 -11 -25
-20 -27 -20 -3 0 -26 22 -52 49 -44 47 -49 49 -81 42 -48 -11 -75 0 -75 30 0
16 -5 23 -15 21 -8 -2 -22 -4 -31 -5 -9 0 -16 -8 -15 -16 1 -20 -41 -41 -86
-41 -20 0 -40 -5 -43 -10 -4 -6 -12 -10 -18 -9 -7 1 -20 -1 -29 -5 -10 -5 -25
-6 -33 -2 -20 7 -19 36 1 36 11 0 15 6 11 19 -5 21 10 31 44 31 11 0 43 7 71
17 41 13 54 14 70 4 14 -9 24 -9 31 -2 7 7 2 12 -17 17 -14 3 -26 8 -26 9 0
15 15 35 25 35 7 0 18 7 25 15 10 12 7 15 -14 21 -14 3 -30 12 -36 19 -6 7
-20 11 -30 8 -25 -7 -26 11 -4 78 9 27 13 53 10 57 -4 3 -48 8 -97 9 -50 2
-107 10 -126 18 -20 8 -44 15 -56 15 -18 0 -18 1 4 18 13 10 42 23 64 30 43
12 77 59 54 73 -18 11 -3 26 33 33 19 4 28 10 22 15 -5 5 -33 5 -66 -2 -44 -8
-61 -7 -73 3 -20 17 -19 33 4 54 22 20 61 14 61 -9 0 -10 11 -9 51 6 28 11 60
17 71 14 10 -4 26 -1 34 6 11 9 18 8 33 -5 17 -16 21 -16 52 3 77 46 99 53
131 46 57 -12 110 -8 120 9 5 9 21 16 36 16 16 0 33 5 39 11 6 6 32 11 57 11
39 -1 48 3 68 29 64 86 125 129 182 129 37 0 38 1 23 18 -23 25 -21 32 9 32
14 0 22 4 19 10 -11 17 15 50 40 50 34 0 55 -10 55 -26 0 -17 20 -18 43 0 25
19 21 26 -13 26 -25 0 -30 4 -30 25 0 20 -7 26 -37 34 -21 5 -49 11 -63 13
-17 2 -25 9 -25 23 0 13 8 22 25 25 14 3 37 13 52 24 15 10 42 19 60 20 27 1
33 -3 33 -19 0 -13 7 -20 20 -20 11 0 19 -6 17 -13 -2 -10 2 -11 15 -4 19 11
123 4 137 -9 6 -5 16 -3 25 5 9 8 25 16 36 18 16 3 19 10 17 35 -4 33 13 52
30 35 6 -6 11 -21 12 -34 1 -13 7 -23 16 -23 8 0 14 7 12 16 -1 12 13 21 52
33 58 19 73 41 60 92 -5 20 0 32 25 56 17 17 30 37 29 45 -3 17 27 41 38 30 4
-4 8 -17 9 -29 1 -18 10 -24 44 -31 37 -7 48 -5 82 17 21 14 41 26 44 26 12 0
4 -28 -10 -34 -8 -3 -15 -13 -15 -21 0 -9 5 -13 11 -9 7 4 9 0 5 -14 -10 -30
7 -35 54 -16 29 12 38 20 31 27 -42 42 56 115 152 112 62 -2 72 -13 51 -53
-18 -37 -16 -37 -54 -17 -18 9 -31 11 -35 5 -3 -6 -17 -10 -31 -10 -13 0 -24
-4 -24 -10 0 -15 35 -29 58 -23 13 3 22 1 22 -6 0 -5 7 -8 15 -5 8 4 15 1 15
-5 0 -7 24 -11 64 -11 56 0 64 2 69 21 3 12 1 32 -5 44 -9 20 -6 29 21 62 42
51 40 73 -9 97 -22 11 -40 23 -40 27 0 4 -22 6 -48 2 -38 -4 -51 -2 -62 12
-24 29 13 39 147 41 98 2 121 -1 116 -11 -6 -18 -56 -29 -85 -19 -21 6 -22 6
-6 -17 9 -14 27 -25 44 -27 16 -2 33 -8 39 -13 12 -12 25 -12 25 1 0 6 -7 10
-15 10 -8 0 -15 5 -15 10 0 6 6 10 14 10 32 0 103 39 109 59 4 15 13 21 35 21
22 0 36 8 51 28 l20 29 -30 33 c-24 26 -30 39 -25 62 5 24 2 30 -22 40 l-27
11 28 8 c17 4 38 3 52 -3 27 -12 67 -5 89 18 22 22 20 34 -6 34 -42 0 -9 12
43 15 44 3 55 1 66 -16 13 -17 16 -18 30 -4 12 12 12 19 3 30 -18 21 -4 47 22
43 19 -2 23 -9 23 -40z m20892 -74 c29 -19 57 -34 62 -34 5 0 12 -8 15 -17 3
-10 17 -30 31 -45 33 -36 26 -77 -14 -79 l-26 -2 28 -4 c22 -4 27 -9 27 -34 0
-16 4 -29 8 -29 5 0 15 -11 22 -25 8 -14 29 -33 49 -42 19 -9 29 -19 22 -21
-21 -7 -91 20 -91 35 0 10 -5 11 -19 3 -35 -18 -67 -11 -109 26 -43 37 -47 60
-8 50 31 -8 66 4 66 21 0 8 -12 24 -26 36 -22 17 -25 26 -21 54 5 26 2 35 -15
44 -11 6 -31 9 -45 6 -19 -3 -26 1 -33 18 -5 13 -15 27 -23 32 -11 6 -12 14
-6 31 11 29 32 24 106 -24z m-8457 -74 c11 -6 27 -26 36 -46 9 -20 27 -40 40
-44 31 -12 37 -27 13 -33 -24 -6 -17 -27 10 -27 26 0 118 -49 125 -66 7 -19
-1 -34 -19 -34 -20 0 -26 -27 -9 -41 13 -10 12 -14 -2 -30 -9 -10 -13 -23 -9
-29 5 -7 -4 -22 -21 -36 l-29 -24 32 -30 c18 -16 45 -33 60 -36 31 -8 143 -62
143 -69 0 -8 -36 -42 -56 -53 -18 -10 -18 -11 1 -17 22 -7 41 -16 98 -46 48
-25 49 -49 2 -49 -37 0 -105 -28 -105 -43 0 -14 40 -77 67 -107 13 -14 19 -26
14 -28 -17 -6 -83 31 -117 65 -18 18 -42 33 -53 33 -33 0 -44 34 -32 92 11 48
10 51 -14 70 -20 16 -23 23 -14 34 9 12 5 14 -24 14 -47 0 -66 -23 -35 -44 12
-9 28 -16 35 -16 17 0 16 -18 -1 -36 -16 -15 -63 -19 -85 -5 -7 5 -25 4 -42
-2 -24 -10 -33 -8 -58 11 -17 12 -40 22 -51 22 -26 0 -60 17 -60 30 0 6 7 10
15 10 22 0 18 18 -5 25 -12 4 -26 0 -36 -9 -9 -10 -33 -16 -61 -16 -36 0 -46
4 -50 19 -6 24 -39 30 -105 20 -58 -9 -88 4 -54 25 53 32 67 48 55 62 -16 20
-69 44 -96 44 -20 0 -23 -4 -19 -26 4 -21 2 -25 -16 -22 -25 3 -37 28 -15 28
9 0 17 10 19 23 3 20 8 22 56 21 29 -1 59 -8 68 -15 22 -18 36 6 29 53 -4 31
-2 36 10 32 24 -10 17 10 -7 21 -33 14 -33 35 1 75 l30 35 31 -17 c17 -10 37
-18 43 -18 6 0 19 -8 30 -17 19 -18 19 -17 12 14 -5 24 -2 37 10 50 11 10 19
12 23 6 13 -19 51 -25 67 -10 8 8 11 17 8 21 -3 3 2 8 11 12 19 7 23 64 4 64
-7 0 2 9 20 20 18 11 42 20 54 20 20 0 20 1 5 18 -18 19 -22 44 -10 55 8 9 11
9 33 -3z m3441 -16 c10 -13 -25 -48 -60 -59 -14 -4 -41 -43 -41 -59 0 -1 13
-1 29 2 31 4 73 -14 108 -47 28 -27 20 -51 -18 -51 -16 0 -29 -2 -29 -5 0 -3
23 -29 52 -58 l52 -52 -28 -3 c-16 -2 -33 1 -39 7 -14 14 -64 14 -72 1 -9 -15
-52 -12 -88 6 l-31 17 38 32 c46 39 44 56 -12 83 -27 13 -43 15 -54 9 -19 -13
-71 0 -65 16 2 7 21 15 43 19 21 3 48 9 59 11 11 3 25 6 30 7 6 1 -1 5 -15 9
-33 9 -38 49 -10 78 11 12 20 29 20 38 0 13 11 16 60 14 33 -1 65 -8 71 -15z
m-11965 -10 c14 -4 26 -20 34 -45 14 -40 19 -45 36 -30 5 4 23 11 41 14 32 6
32 6 21 -21 -18 -42 -79 -132 -89 -132 -5 0 -9 9 -9 19 0 11 -5 21 -12 23 -14
5 -38 97 -32 124 3 12 -2 28 -11 38 -17 17 -13 19 21 10z m3624 -109 c-14 -17
-4 -95 12 -95 6 0 8 6 5 14 -9 22 14 36 60 36 39 0 122 25 166 50 27 16 56 -4
54 -38 l-2 -27 67 3 c50 3 73 0 92 -13 14 -10 26 -20 26 -24 0 -13 -55 -31
-94 -31 -23 0 -50 -7 -60 -15 -11 -8 -30 -15 -43 -15 -16 0 -21 -4 -17 -15 4
-9 0 -15 -10 -15 -19 0 -21 -21 -4 -38 9 -9 9 -12 -2 -13 -61 -5 -85 -11 -93
-24 -11 -21 -29 -19 -50 6 -21 24 -45 19 -84 -17 -29 -27 -36 -28 -64 -14 -25
14 -89 2 -89 -16 0 -15 -18 -18 -44 -8 -17 6 -22 29 -8 37 4 2 2 2 -5 1 -7 -2
-15 1 -18 6 -10 16 -37 11 -61 -11 -21 -20 -73 -31 -101 -21 -25 8 6 41 43 44
32 3 34 5 22 21 -12 15 -18 16 -43 7 -36 -14 -95 -52 -95 -62 0 -5 7 -8 15 -8
8 0 15 -9 15 -20 0 -15 -7 -20 -28 -20 -15 0 -35 9 -45 20 -9 11 -23 20 -31
20 -8 0 -19 6 -23 13 -11 18 -66 52 -79 49 -6 -1 -17 5 -24 13 -7 9 -8 15 -2
15 9 0 32 46 37 75 17 86 21 89 113 99 45 4 69 2 85 -8 34 -20 207 -5 228 20
6 8 26 14 43 14 17 0 38 5 46 10 8 5 35 10 59 10 37 0 42 -2 31 -15z m5472
-18 c-2 -9 2 -17 7 -17 6 0 8 -6 5 -13 -3 -8 7 -19 22 -26 30 -13 25 -21 -24
-41 -28 -11 -41 -10 -86 4 -36 12 -56 24 -59 37 -3 10 -1 19 4 19 5 0 9 9 9
19 0 23 24 33 63 26 16 -3 27 -1 27 6 0 6 8 9 18 7 10 -2 16 -11 14 -21z
m12556 -24 c7 -7 32 -13 55 -14 23 0 51 -2 62 -4 11 -2 35 -7 54 -10 19 -4 63
-8 99 -11 74 -4 94 -16 90 -53 -2 -20 -9 -26 -28 -27 -71 -3 -80 -5 -80 -14 0
-5 8 -10 18 -10 10 0 21 -2 24 -5 11 -11 417 -10 429 2 8 8 22 8 53 0 43 -12
186 -11 186 1 0 4 -20 18 -44 30 -36 19 -52 22 -89 17 -51 -8 -120 10 -114 28
4 13 61 14 121 2 34 -7 38 -6 33 8 -11 29 54 37 107 12 17 -8 37 -28 44 -44
22 -51 61 -81 102 -81 60 0 102 -19 98 -44 -3 -19 -10 -21 -92 -24 -50 -2
-101 2 -115 7 -39 16 -804 13 -829 -3 -6 -3 -8 -19 -6 -35 6 -38 -18 -44 -87
-20 -93 31 -131 34 -157 8 -20 -18 -31 -20 -70 -15 -47 6 -86 31 -76 48 3 5
30 8 60 7 29 -2 57 0 61 4 3 4 1 7 -5 7 -7 0 -12 6 -12 14 0 15 30 26 71 26
59 0 64 44 11 103 -54 59 -72 88 -72 114 0 23 0 23 43 6 23 -9 48 -23 55 -30z
m-15692 -42 c16 -5 41 -12 57 -15 39 -9 37 -40 -3 -34 -22 3 -36 -2 -52 -19
-16 -17 -18 -23 -7 -23 9 0 24 -7 35 -16 18 -14 16 -15 -21 -8 -22 4 -51 7
-65 7 -25 -1 -60 22 -60 39 0 5 -7 16 -15 24 -22 23 -18 32 18 43 43 12 78 13
113 2z m1187 -53 c32 -12 35 -24 7 -33 -11 -3 -20 -14 -20 -23 -1 -41 -22 -50
-104 -46 -78 4 -106 14 -106 40 0 9 12 14 34 14 32 0 34 2 32 28 -2 15 -2 30
1 34 5 10 120 -1 156 -14z m-14378 1 c4 -6 13 -8 21 -5 22 9 22 -30 -2 -81
-13 -28 -18 -31 -48 -26 -28 4 -34 2 -39 -17 -9 -34 -59 -24 -70 15 -5 17 -14
38 -19 48 -13 26 -4 31 47 28 38 -2 49 2 68 23 24 28 33 31 42 15z m7284 -37
c7 -13 6 -23 -1 -30 -9 -9 -8 -12 5 -12 10 0 17 -8 17 -18 0 -19 48 -42 91
-42 13 0 34 -3 46 -6 20 -5 20 -8 8 -21 -28 -27 -12 -43 58 -57 15 -4 27 -13
27 -22 0 -8 16 -24 35 -35 29 -17 35 -26 33 -51 -1 -16 -8 -34 -15 -40 -18
-15 -17 -74 2 -82 12 -4 14 0 10 17 -4 17 1 25 22 35 36 16 52 15 59 -3 4 -10
20 -15 45 -15 26 0 42 -5 45 -15 4 -8 18 -15 33 -15 38 0 101 -19 101 -31 0
-6 -5 -19 -11 -31 -16 -31 -6 -31 52 -4 63 31 59 31 115 6 35 -16 44 -26 44
-45 0 -15 -6 -25 -14 -25 -8 0 -16 -4 -18 -10 -1 -5 -23 -11 -48 -13 -40 -3
-45 -6 -42 -25 2 -15 -2 -22 -13 -22 -8 0 -23 -4 -33 -10 -9 -5 -60 -27 -112
-50 -52 -22 -97 -44 -100 -48 -3 -4 -16 -13 -29 -20 -13 -8 -39 -22 -58 -33
-18 -10 -44 -19 -57 -19 -15 0 -33 -12 -50 -35 -19 -25 -35 -35 -54 -35 -31 0
-47 16 -82 79 -26 45 -19 64 20 54 10 -3 27 0 37 6 16 9 16 10 -7 11 -41 1
-70 11 -70 26 0 8 -5 14 -10 14 -15 0 -30 44 -23 69 4 15 13 21 34 21 15 0 31
-4 34 -10 10 -17 32 -11 38 10 3 13 10 18 21 14 21 -8 21 -34 0 -34 -11 0 -14
-8 -12 -27 3 -31 7 -32 100 -11 32 8 66 21 75 31 16 16 14 17 -36 17 -42 0
-61 6 -87 25 -18 14 -36 25 -41 25 -5 0 -16 9 -26 20 -13 16 -15 25 -7 40 14
26 13 28 -15 22 -27 -5 -30 -17 -15 -56 13 -36 -4 -42 -43 -14 -17 12 -33 26
-35 30 -2 3 -12 -2 -23 -13 -23 -23 -67 -25 -76 -3 -3 8 -1 26 5 40 13 28 52
33 72 9 10 -13 15 -13 21 -3 5 7 2 19 -6 28 -20 22 -8 60 19 61 36 1 -80 36
-141 42 -40 4 -62 2 -73 -7 -22 -19 -78 -28 -86 -14 -4 7 -2 14 4 16 18 6 4
22 -19 22 -11 0 -35 11 -53 25 -18 14 -35 22 -38 19 -3 -3 -22 -2 -42 1 -29 6
-36 12 -36 31 0 35 47 45 72 14 10 -12 18 -17 18 -11 0 6 11 11 25 11 14 0 29
8 35 20 6 11 16 20 23 20 17 0 67 48 67 65 0 8 -4 17 -10 20 -16 10 -12 25 6
25 28 0 114 54 114 72 0 31 64 39 79 10z m547 -27 c-7 -42 -6 -45 16 -45 13 0
31 -7 42 -15 19 -15 14 -35 -10 -35 -8 0 -31 -7 -52 -16 -22 -10 -60 -16 -92
-15 -31 1 -76 -4 -100 -12 -69 -23 -98 -28 -104 -19 -7 12 46 41 85 45 46 5
107 35 147 72 18 16 36 29 40 29 4 -1 6 2 5 7 -10 32 -5 49 13 49 14 0 15 -7
10 -45z m11629 31 c27 -12 35 -21 35 -41 0 -34 -53 -57 -118 -53 -41 3 -46 6
-53 31 -4 16 -5 35 -2 44 13 32 82 42 138 19z m-10640 -36 c8 -26 -1 -40 -26
-40 -26 0 -26 -43 1 -68 12 -11 21 -34 23 -57 2 -31 -2 -41 -20 -50 -17 -9
-20 -14 -11 -23 9 -9 6 -12 -13 -12 -14 0 -34 9 -44 20 -19 21 -60 27 -70 10
-4 -6 5 -10 19 -10 21 0 26 -5 26 -26 0 -32 -40 -50 -136 -59 -59 -6 -73 -4
-87 10 -9 9 -17 20 -17 24 0 17 30 32 50 26 11 -3 29 -3 41 0 29 9 6 35 -32
35 -19 0 -29 5 -29 15 0 11 11 15 40 15 22 0 40 3 41 8 0 4 3 18 5 32 4 19 2
22 -8 12 -7 -7 -37 -12 -69 -12 -44 0 -58 4 -63 17 -12 31 22 42 87 28 25 -5
42 -4 50 4 17 17 56 13 74 -9 22 -25 33 -26 33 -2 0 10 12 22 30 29 37 14 39
36 3 50 l-28 11 35 1 c24 1 39 8 48 21 16 26 39 26 47 0z m16785 -91 c38 -29
108 -43 154 -31 l28 8 -37 17 c-21 10 -36 19 -34 21 2 2 37 6 76 9 72 6 73 6
108 -28 19 -19 35 -39 35 -44 0 -6 10 -16 22 -22 20 -11 20 -12 4 -24 -11 -8
-13 -16 -7 -19 13 -8 8 -53 -8 -84 -19 -35 -78 -27 -106 13 -16 24 -27 30 -54
30 -30 -1 -36 4 -54 42 -11 23 -24 40 -28 38 -3 -3 -19 5 -33 16 -15 12 -51
24 -81 28 -62 9 -85 24 -85 57 0 22 2 22 33 12 17 -6 48 -24 67 -39z m2222
-40 c21 -11 45 -19 56 -19 18 0 42 -18 42 -32 0 -4 -42 -7 -93 -7 -53 1 -103
-3 -115 -10 -30 -16 -147 -14 -161 3 -18 21 39 39 131 40 42 0 80 4 84 8 4 5
-1 18 -12 29 -19 22 -19 22 6 14 14 -4 42 -16 62 -26z m3819 19 c0 -10 2 -10
6 -1 4 10 10 10 26 -2 12 -8 36 -15 54 -15 32 0 110 -18 170 -40 20 -7 33 -19
35 -33 2 -16 15 -26 50 -37 52 -16 94 -52 84 -69 -4 -6 -31 -11 -59 -12 -41 0
-47 -2 -29 -9 36 -15 25 -23 -22 -18 -50 6 -136 55 -136 78 0 9 -16 20 -37 27
-32 10 -41 9 -63 -7 -16 -11 -35 -17 -48 -13 -15 3 -31 -5 -58 -31 -22 -21
-45 -34 -58 -33 -25 2 -106 85 -100 102 8 21 63 46 113 52 66 8 74 13 62 46
-7 17 -7 27 -1 27 6 0 10 -6 11 -12z m-11066 -198 c-2 -16 1 -30 6 -30 5 0 19
-11 31 -25 12 -14 33 -25 47 -25 32 0 111 -35 111 -49 0 -15 -63 -24 -132 -19
-61 5 -61 4 -30 -11 35 -16 39 -28 19 -56 -18 -23 -70 -15 -104 17 -22 21 -24
21 -58 5 -20 -9 -44 -17 -55 -17 -22 0 -72 21 -82 34 -3 5 -41 8 -85 7 -60 -1
-87 2 -118 18 l-40 20 37 15 c21 9 52 16 69 16 18 0 37 7 43 16 10 13 16 14
39 3 19 -9 24 -16 17 -24 -7 -8 -4 -17 9 -29 17 -16 19 -16 24 5 5 19 10 21
49 15 110 -16 188 -18 188 -5 0 17 -60 79 -76 79 -17 0 -45 30 -39 40 3 4 29
2 58 -6 28 -7 55 -14 59 -14 13 0 -5 39 -21 43 -9 3 -4 5 11 6 24 1 27 -2 23
-29z m-4266 -145 c24 -19 49 -36 55 -36 6 -1 41 -3 78 -4 84 -3 98 -9 98 -36
0 -18 5 -20 26 -16 32 6 85 -20 91 -44 3 -11 10 -19 17 -19 24 0 117 -50 111
-60 -10 -16 -50 -12 -77 9 -30 24 -91 29 -142 12 -21 -7 -56 -11 -77 -8 -47 6
-53 -14 -11 -38 25 -15 26 -16 3 -11 -30 6 -81 -4 -81 -16 0 -5 13 -17 30 -26
16 -9 30 -22 30 -28 0 -13 -32 -24 -70 -24 -26 0 -121 57 -127 76 -5 15 60 27
100 18 36 -7 35 -4 -13 29 -20 13 -64 29 -99 37 -52 11 -64 17 -73 39 -13 34
-15 91 -3 91 32 0 51 -16 43 -36 -2 -3 7 -11 19 -17 22 -12 113 -11 113 2 -1
16 -19 29 -59 43 -55 18 -91 59 -71 83 19 23 41 18 89 -20z m-12604 -45 c19 6
39 9 45 5 17 -11 11 -35 -9 -35 -37 0 -89 -30 -110 -63 -25 -41 -117 -95 -134
-78 -15 15 8 62 27 55 9 -3 21 5 33 23 9 15 20 30 24 33 3 3 9 17 12 32 8 29
32 40 60 26 11 -6 31 -5 52 2z m18915 -30 c9 -5 48 -10 86 -11 38 -1 80 -6 93
-11 23 -8 23 -9 5 -23 -10 -8 -38 -15 -62 -15 -24 0 -52 -5 -63 -10 -26 -14
-24 -40 2 -40 21 0 89 -36 89 -47 0 -3 -11 -2 -25 1 l-25 6 20 -35 c11 -20 15
-35 9 -35 -16 0 -109 52 -109 61 0 15 -68 49 -99 49 -17 0 -48 7 -68 15 -48
20 -63 18 -35 -5 12 -10 18 -21 13 -25 -6 -3 -88 -6 -183 -6 -95 -1 -221 -1
-279 -2 -80 0 -111 3 -128 15 -17 12 -31 13 -69 6 -26 -5 -65 -11 -87 -12
-109 -7 -102 -5 -82 -20 29 -22 -4 -28 -67 -12 -25 6 -26 9 -21 58 6 66 16 76
52 50 36 -26 83 -39 83 -23 0 6 -8 11 -17 11 -12 0 -14 3 -6 11 13 13 65 8
146 -15 97 -27 156 -17 86 15 -18 8 -32 19 -33 24 -1 12 51 15 81 4 12 -5 51
-5 86 -1 75 9 272 -9 289 -26 9 -9 8 -12 -5 -12 -9 0 -17 -4 -17 -9 0 -15 49
-22 72 -10 20 11 20 13 5 24 -25 18 -21 25 16 25 17 0 42 8 54 18 26 19 163
28 193 12z m-1623 -42 c8 -6 11 -18 8 -25 -2 -8 0 -23 5 -33 9 -16 5 -19 -30
-25 -41 -7 -53 -28 -24 -39 9 -4 14 -9 11 -13 -4 -3 -2 -12 4 -19 8 -10 7 -18
-5 -30 -13 -13 -22 -14 -44 -6 -15 6 -41 13 -58 17 -17 3 -43 18 -57 33 -25
26 -26 29 -11 50 10 14 26 22 44 22 16 0 32 5 35 10 3 6 1 10 -4 10 -6 0 -11
7 -11 15 0 9 9 15 24 15 16 0 26 7 29 21 5 18 11 21 38 15 18 -3 38 -11 46
-18z m-25890 -2 c-3 -8 5 -18 19 -25 28 -12 30 -23 8 -42 -12 -10 -24 -10 -60
-1 -31 8 -51 9 -64 2 -10 -5 -30 -10 -43 -10 -13 0 -53 -15 -88 -33 -77 -40
-157 -63 -172 -48 -11 11 8 41 27 41 6 0 29 9 51 20 22 10 52 22 67 25 19 4
30 13 34 31 6 23 10 25 63 23 31 -1 73 5 96 14 51 20 69 21 62 3z m20059 -3
c63 -6 169 -50 166 -68 -1 -6 -48 -10 -114 -10 -78 -1 -113 -5 -116 -13 -2 -7
-14 -12 -27 -12 -44 0 -55 10 -55 51 0 43 31 74 65 64 11 -3 48 -8 81 -12z
m10004 -130 c43 -29 54 -43 36 -43 -9 0 -16 -3 -16 -7 0 -5 -3 -18 -6 -30 -5
-17 -2 -23 10 -23 14 0 20 11 18 31 -1 4 37 5 84 4 114 -5 180 -27 144 -50 -5
-3 -10 -15 -10 -26 0 -17 -7 -19 -60 -19 -34 0 -74 -7 -89 -15 -22 -11 -37
-12 -62 -5 -45 13 -49 13 -49 -5 0 -19 -46 -19 -80 0 -30 17 -87 19 -92 3 -2
-6 -26 -12 -54 -12 -41 -1 -49 -4 -49 -20 0 -14 9 -19 39 -22 21 -2 57 -12 80
-23 22 -11 66 -22 96 -24 30 -3 75 -12 100 -20 25 -8 62 -18 83 -22 41 -7 116
-64 85 -65 -9 0 -24 -10 -32 -21 -16 -23 -20 -23 -143 -3 -29 4 -43 3 -43 -5
0 -6 13 -11 29 -11 17 0 42 -10 56 -22 l26 -23 -105 -1 c-58 0 -109 -3 -112
-7 -4 -4 -1 -14 7 -23 12 -15 12 -16 -6 -11 -55 15 -74 16 -81 6 -4 -7 -1 -10
7 -7 8 3 21 0 29 -7 8 -7 36 -20 62 -30 26 -10 53 -24 59 -31 18 -22 3 -44
-31 -44 -26 0 -31 -3 -28 -21 2 -13 -5 -26 -17 -33 -11 -6 -22 -12 -24 -13 -2
-2 4 -12 13 -22 24 -27 12 -41 -34 -41 -32 0 -42 5 -55 28 -9 15 -30 34 -46
41 -16 7 -29 19 -29 27 0 11 -7 13 -27 8 -16 -4 -32 -11 -37 -15 -25 -22 -83
-9 -137 31 -45 34 -60 40 -94 38 -22 -2 -39 -7 -38 -13 1 -5 4 -27 8 -47 7
-37 7 -38 -24 -38 -18 0 -31 5 -31 13 -1 11 -27 36 -73 69 -21 16 -28 48 -15
65 7 9 5 15 -8 19 -11 3 -46 18 -79 34 -33 15 -81 35 -107 44 -25 10 -52 24
-58 32 -16 19 -46 18 -54 -2 -6 -15 -8 -15 -32 1 -20 13 -28 14 -40 4 -8 -6
-14 -8 -14 -3 0 4 -5 3 -12 -4 -17 -17 -67 -15 -74 3 -3 8 -16 17 -27 21 -31
9 -56 34 -51 49 3 8 -7 14 -30 18 -22 3 -45 17 -60 34 -21 25 -30 28 -75 26
-28 -1 -69 4 -92 12 -55 20 -75 20 -60 1 7 -8 8 -17 4 -19 -18 -11 -173 -27
-197 -21 -21 5 -26 2 -27 -12 -1 -11 0 -23 1 -29 5 -19 0 -59 -9 -68 -5 -5
-24 -4 -46 3 -20 7 -75 13 -122 14 -49 0 -88 5 -90 11 -2 6 11 19 29 30 18 10
27 20 20 23 -6 2 -21 19 -33 39 -22 35 -22 36 -4 49 18 14 18 14 0 28 -12 8
-33 12 -57 8 -50 -6 -98 14 -98 42 0 29 -11 42 -40 51 -20 6 -23 5 -12 -6 20
-21 14 -49 -13 -59 -30 -11 -75 -4 -130 20 -22 10 -53 22 -70 26 -16 5 -35 21
-42 34 -12 24 -12 25 30 28 23 2 44 8 48 13 3 6 24 2 52 -10 61 -26 127 -39
110 -20 -18 18 2 39 38 39 16 0 29 5 29 11 0 8 15 10 45 6 57 -6 161 -75 158
-104 -1 -10 0 -12 3 -5 7 15 48 16 75 1 24 -13 16 -29 -11 -22 -11 3 -20 3
-20 1 0 -16 33 -67 48 -73 54 -22 75 -24 104 -9 20 11 42 14 65 9 24 -4 33 -3
28 5 -11 17 23 60 48 60 29 0 42 9 72 50 16 22 25 47 25 72 0 27 5 40 19 48
31 16 178 5 251 -19 77 -25 161 -39 285 -45 50 -3 104 -8 121 -11 17 -4 46 -3
65 3 21 5 63 5 113 -1 56 -7 89 -6 110 1 17 6 92 14 166 17 135 5 261 23 355
50 49 14 80 22 100 24 6 0 22 -7 35 -16z m-15264 -207 c19 -3 44 -27 44 -43 0
-17 -88 -56 -109 -48 -9 4 -22 -3 -31 -15 -16 -21 -16 -21 -40 -2 l-23 19 22
32 c12 17 27 31 32 31 5 0 9 6 9 14 0 25 18 27 96 12z m-16915 -202 c16 -19
-2 -34 -42 -34 -14 0 -34 -9 -44 -20 -10 -11 -28 -20 -41 -20 -13 0 -29 -7
-36 -15 -7 -9 -19 -21 -27 -28 -38 -34 -55 -56 -56 -76 -2 -26 8 -26 62 -2 50
23 80 27 112 17 19 -7 28 -3 46 20 21 25 24 27 30 12 4 -10 16 -18 27 -18 30
0 75 27 81 50 5 20 47 29 47 10 0 -5 -8 -10 -17 -10 -17 -1 -17 -1 0 -11 13
-8 25 -4 50 15 63 48 94 28 66 -41 -26 -64 -33 -74 -53 -72 -12 1 -28 -1 -36
-4 -24 -9 -98 -16 -104 -9 -3 3 -1 11 6 19 14 18 5 26 -21 18 -16 -5 -19 -12
-14 -40 4 -27 0 -38 -21 -60 -25 -25 -29 -26 -45 -11 -12 11 -21 12 -28 5 -7
-7 -14 -5 -23 6 -19 22 -31 18 -21 -7 12 -34 3 -48 -30 -48 -34 0 -40 24 -11
47 13 10 9 10 -15 -2 -18 -8 -40 -15 -50 -15 -17 -1 -17 -1 0 -14 24 -19 21
-32 -10 -48 -48 -23 -83 -2 -51 30 7 7 8 12 2 12 -5 0 -18 -13 -27 -30 -10
-16 -22 -30 -28 -30 -5 0 -9 -4 -9 -10 0 -5 6 -10 14 -10 23 0 30 -20 12 -38
-14 -15 -17 -14 -36 6 -30 32 -20 34 -163 -47 -21 -11 -42 -21 -48 -21 -6 0
-22 -9 -36 -20 -14 -11 -34 -20 -44 -20 -23 0 -24 -8 -2 -32 14 -16 14 -18 0
-18 -8 0 -17 5 -19 12 -3 8 -11 6 -29 -5 -44 -29 -132 -58 -156 -52 -28 7 -30
25 -3 25 11 0 20 5 20 10 0 6 -6 10 -14 10 -22 0 -46 -11 -46 -21 0 -11 -86
-99 -97 -99 -12 0 -32 -49 -22 -55 12 -8 -1 -35 -17 -35 -8 0 -14 9 -14 20 0
21 -24 28 -35 10 -13 -22 -23 2 -12 30 6 16 8 32 5 35 -11 11 -88 -15 -88 -30
0 -7 -14 -24 -32 -36 -30 -22 -31 -22 -26 -3 4 17 1 19 -29 16 -20 -3 -33 0
-33 7 0 19 -32 12 -55 -13 -12 -13 -32 -27 -43 -31 -19 -5 -22 -3 -22 24 0 17
3 31 8 31 4 0 27 24 52 53 24 28 38 47 30 40 -8 -6 -36 -10 -62 -9 -36 2 -45
0 -41 -11 6 -16 -26 -55 -39 -47 -5 3 -24 -4 -43 -15 -27 -16 -35 -17 -35 -6
0 8 13 22 30 32 18 10 30 26 30 38 0 11 9 35 21 54 11 18 17 36 13 40 -4 3 -9
0 -11 -6 -3 -7 -16 -13 -30 -13 -18 0 -24 5 -21 18 3 13 13 17 48 17 39 0 45
3 42 20 -9 57 -8 58 38 72 47 14 82 45 115 101 17 28 25 32 61 32 28 0 44 5
48 15 3 8 12 15 21 15 18 0 21 -40 3 -40 -8 -1 -6 -6 5 -14 9 -7 17 -18 17
-25 0 -8 10 -6 31 5 18 9 28 19 23 23 -5 3 -10 18 -10 32 -1 19 3 26 15 25 10
-1 15 6 14 17 -1 21 30 57 50 57 7 0 18 5 24 11 13 13 69 8 66 -6 -1 -5 -9
-27 -17 -47 -12 -27 -13 -39 -4 -44 6 -4 8 -3 5 3 -4 6 7 16 23 23 17 7 39 23
49 36 11 13 22 24 27 24 15 0 44 33 44 50 0 18 53 49 80 48 44 -3 80 3 78 13
-2 6 9 20 24 32 28 21 28 21 43 1 8 -10 15 -22 15 -25 0 -12 -56 -67 -75 -73
-24 -8 -52 -44 -61 -80 -9 -38 13 -33 33 9 11 23 25 36 44 40 16 4 27 11 26
17 -1 6 3 12 10 15 6 2 13 -4 15 -14 3 -14 10 -11 44 20 48 43 54 45 54 17 0
-26 29 -26 75 1 20 12 35 23 33 24 -2 2 -25 5 -52 7 -56 5 -73 24 -29 33 66
14 107 28 120 41 23 22 52 17 63 -12 l10 -25 31 22 c23 16 28 24 17 30 -9 6
-9 9 -1 9 6 0 24 5 40 12 15 6 34 12 41 14 7 1 23 9 35 18 28 19 32 19 48 0z
m24843 -32 c49 -17 73 -42 42 -42 -10 0 -16 -9 -16 -25 0 -30 -11 -31 -103 -6
-75 21 -111 50 -75 63 11 5 31 5 45 1 21 -5 25 -3 20 10 -3 8 -3 18 0 21 7 7
12 5 87 -22z m-23754 -84 c0 -6 -7 -18 -15 -27 -8 -9 -27 -31 -41 -49 -22 -27
-31 -32 -54 -27 -16 4 -43 0 -64 -9 -36 -15 -37 -15 -46 9 -8 20 -17 25 -44
25 -41 0 -56 18 -31 37 28 19 44 16 38 -7 -7 -26 10 -23 56 9 29 21 35 22 45
9 12 -16 35 -12 51 8 6 8 28 18 50 23 55 12 55 12 55 -1z m26983 -7 c13 -5 27
-20 30 -33 4 -13 19 -32 35 -42 25 -17 27 -22 18 -42 -6 -13 -18 -26 -27 -29
-9 -3 -24 -14 -34 -25 -22 -24 -43 -25 -81 -5 -20 10 -23 15 -11 15 9 0 17 4
17 9 0 17 -34 16 -72 -2 -42 -21 -78 -10 -78 23 0 11 -4 20 -10 20 -5 0 -24 9
-42 21 -19 12 -25 18 -13 16 11 -3 36 -8 55 -12 l35 -6 -30 26 c-25 21 -28 27
-15 35 18 12 25 12 75 0 25 -6 44 -5 49 0 6 6 18 10 27 10 9 0 19 7 23 15 6
17 16 18 49 6z m-20504 -56 c11 -11 -20 -55 -39 -55 -17 0 -20 -7 -20 -40 0
-44 6 -49 26 -22 10 13 15 14 25 5 6 -6 9 -19 5 -29 -6 -14 -16 -16 -72 -11
-37 4 -72 11 -79 17 -9 8 -14 5 -18 -11 -4 -16 -11 -20 -27 -16 -11 3 -33 2
-49 -3 -15 -4 -34 -4 -43 1 -20 11 -58 -16 -58 -43 0 -13 -5 -18 -14 -15 -8 3
-17 1 -20 -6 -3 -9 -5 -9 -5 0 -1 6 4 15 9 18 6 3 10 22 10 41 0 19 5 34 11
34 6 0 3 7 -5 16 -20 20 -12 34 20 34 14 0 24 6 24 14 0 10 17 16 58 21 102
11 117 15 147 40 25 21 37 24 70 20 21 -3 41 -8 44 -10z m18651 -172 c14 -9
29 -23 33 -30 4 -7 24 -13 43 -13 19 0 45 -5 56 -11 11 -6 38 -13 60 -15 43
-4 88 -24 108 -49 8 -9 35 -27 60 -40 l47 -24 22 50 c24 52 32 56 73 37 20
-10 26 -20 26 -43 -1 -16 -6 -33 -11 -37 -7 -4 -7 -12 2 -22 17 -20 9 -31 -43
-57 -70 -35 -105 -23 -160 55 -53 74 -78 87 -144 79 -27 -3 -95 0 -151 6 -96
12 -104 11 -119 -6 -22 -24 -79 -27 -79 -4 0 9 6 24 15 33 8 10 12 24 9 32 -9
22 14 45 58 61 52 19 66 18 95 -2z m2028 -151 c25 -26 51 -57 102 -124 12 -16
28 -28 35 -28 30 0 84 -34 89 -56 8 -32 59 -57 97 -49 22 5 41 0 75 -20 44
-26 49 -27 115 -17 50 8 75 7 94 -1 28 -13 33 -35 10 -43 -26 -10 12 -50 71
-74 56 -23 92 -60 57 -60 -10 0 -40 11 -67 24 -82 41 -141 15 -123 -53 4 -17
2 -18 -25 -9 -16 6 -48 8 -71 5 -23 -2 -64 1 -92 7 -48 11 -50 13 -47 44 2 27
-2 32 -25 38 -16 3 -47 12 -71 20 -23 8 -49 14 -56 14 -8 0 -21 11 -29 24 -10
14 -33 28 -59 34 -24 6 -58 22 -76 36 -18 13 -48 30 -65 37 -32 13 -47 26 -47
42 0 10 32 1 84 -24 22 -11 52 -19 68 -19 25 0 27 2 18 26 -6 14 -10 40 -10
58 0 33 -33 73 -92 109 -22 14 -28 25 -28 52 0 29 4 35 21 35 11 0 33 -13 47
-28z m-19210 -49 c2 -15 -5 -26 -22 -35 l-26 -14 21 -38 20 -39 -49 5 c-40 4
-51 1 -61 -14 -6 -10 -16 -18 -22 -18 -6 0 -19 -10 -29 -22 l-18 -23 -22 28
c-13 16 -31 27 -46 27 -15 0 -23 4 -19 11 4 6 12 9 19 6 6 -2 29 18 51 45 39
47 41 48 88 44 27 -2 43 0 36 5 -10 6 -9 13 5 34 22 33 69 32 74 -2z m1393
-390 c16 -28 16 -33 4 -33 -8 0 -15 6 -15 13 0 6 -13 -2 -28 -20 -26 -31 -54
-45 -177 -84 -33 -11 -82 -29 -110 -39 -27 -11 -75 -22 -105 -26 -30 -4 -63
-11 -72 -15 -23 -12 -34 8 -15 29 9 9 18 29 22 43 6 23 2 29 -35 48 -22 11
-47 21 -55 21 -17 0 -20 26 -5 35 6 4 28 -7 49 -24 37 -29 41 -30 87 -21 27 6
69 13 94 17 24 3 61 18 80 32 30 21 47 26 98 26 34 -1 62 3 62 7 0 4 13 8 29
8 17 0 33 5 36 11 12 18 38 5 56 -28z m19898 28 c12 -8 12 -13 3 -24 -16 -19
-6 -27 94 -76 90 -44 127 -76 100 -87 -9 -3 -13 -10 -10 -15 9 -14 -6 -11 -65
17 -75 36 -111 63 -104 81 4 11 -3 13 -41 8 -66 -7 -92 2 -115 41 l-20 34 39
0 c29 0 40 4 40 15 0 17 55 21 79 6z m-25474 -157 c1 -32 14 -45 41 -38 17 4
26 1 30 -11 8 -20 -11 -35 -43 -35 -12 0 -26 -6 -30 -12 -4 -7 -18 -21 -30
-32 -18 -15 -26 -16 -37 -7 -11 9 -20 10 -35 2 -28 -15 -28 -15 -27 22 1 24 6
33 21 35 22 3 80 94 68 106 -4 4 4 3 17 -2 14 -5 25 -18 25 -28z m2785 -144
c11 -11 20 -31 20 -44 0 -13 5 -26 12 -28 8 -3 5 -11 -10 -23 -12 -11 -22 -24
-22 -30 0 -5 -5 -17 -10 -25 -8 -13 -11 -12 -24 5 -14 19 -15 19 -40 -8 -34
-36 -49 -35 -41 3 6 26 4 30 -14 30 -23 0 -37 18 -24 31 5 5 17 4 28 -5 17
-12 23 -10 57 22 28 27 35 39 27 49 -13 14 -5 43 11 43 5 0 19 -9 30 -20z
m22996 -41 c37 -23 102 -99 84 -99 -7 0 -8 -6 -3 -14 8 -15 113 -105 193 -165
45 -35 79 -70 80 -83 0 -14 -87 23 -115 50 -16 15 -52 36 -79 47 -29 11 -55
30 -62 42 -6 13 -18 31 -27 41 -19 21 -22 42 -7 42 17 0 11 20 -7 26 -10 4
-42 17 -70 30 -56 25 -65 45 -41 84 16 24 13 24 54 -1z m-23438 -365 c23 -16
29 -48 12 -59 -5 -3 -10 -11 -10 -17 0 -13 94 -2 120 14 26 17 50 -6 50 -48 0
-33 12 -45 25 -24 9 15 55 -11 55 -31 0 -26 19 -33 39 -15 24 22 41 20 41 -5
0 -16 -4 -19 -20 -14 -14 5 -20 2 -20 -9 0 -9 -4 -16 -9 -16 -5 0 -7 -10 -3
-22 3 -14 2 -19 -6 -14 -19 12 -38 -5 -20 -18 20 -15 30 -70 15 -85 -6 -6 -21
-11 -34 -11 -12 0 -26 -7 -31 -15 -14 -25 -119 -9 -149 23 -25 27 -29 52 -12
69 20 20 0 49 -40 61 -21 7 -46 21 -55 31 -17 19 -17 21 3 42 27 29 23 40 -17
58 -32 15 -41 34 -22 46 6 3 10 17 10 30 0 22 22 44 45 45 6 0 21 -7 33 -16z
m-1922 -80 c2 -44 4 -45 44 -42 46 2 58 -5 40 -27 -8 -10 -31 -15 -69 -16 -86
-2 -105 -10 -109 -46 -3 -27 -7 -31 -40 -36 -20 -2 -38 -3 -40 -2 -2 1 7 19
19 40 20 34 21 38 6 47 -27 14 -20 25 21 33 47 9 90 34 98 58 7 23 29 17 30
-9z m-3681 -224 c-3 -5 -12 -10 -19 -10 -7 0 -19 -19 -26 -42 -7 -24 -17 -47
-22 -52 -28 -33 8 -97 43 -75 24 15 51 11 47 -8 -2 -13 -17 -20 -52 -25 -26
-4 -57 -15 -68 -25 -19 -17 -19 -17 -13 10 8 31 -1 77 -15 77 -6 0 -10 -11
-10 -25 0 -30 -36 -92 -42 -73 -4 10 -10 9 -27 -6 -11 -11 -21 -25 -21 -32 0
-7 -12 -22 -27 -33 -29 -24 -55 -21 -89 10 -11 11 -30 19 -42 19 -12 0 -22 5
-22 10 0 6 4 10 8 10 4 0 16 14 26 30 9 17 22 27 28 24 13 -9 115 93 122 122
4 16 14 24 27 24 11 0 17 -4 14 -10 -12 -20 7 -9 47 25 47 39 150 82 133 55z
m29803 -513 c17 -7 56 -31 86 -52 51 -38 55 -43 58 -88 2 -27 2 -50 0 -52 -9
-8 -128 28 -156 47 -31 22 -65 56 -67 67 -9 45 -6 68 8 79 21 15 33 15 71 -1z"/>
<path d="M13057 9329 c-10 -6 -25 -8 -34 -5 -9 4 -31 2 -50 -5 -22 -7 -43 -8
-61 -1 -19 6 -37 5 -59 -5 -18 -7 -33 -15 -33 -16 0 -2 8 -14 19 -25 17 -20
23 -21 71 -12 29 6 54 10 56 10 2 0 4 -9 4 -21 0 -17 -4 -20 -24 -15 -18 4
-28 0 -40 -19 -9 -14 -23 -25 -31 -25 -29 0 -15 -18 18 -24 22 -4 48 0 72 10
21 9 51 13 66 10 38 -7 62 20 34 40 -10 8 -25 14 -32 14 -7 0 -13 4 -13 10 0
12 35 31 43 23 3 -3 13 -3 22 0 8 4 18 6 20 6 12 0 35 30 35 45 0 19 -54 22
-83 5z"/>
<path d="M11550 9139 c-31 -27 -40 -30 -87 -26 -45 3 -55 0 -73 -20 -14 -16
-31 -23 -55 -23 -59 0 -39 -17 28 -24 90 -9 85 -9 175 2 69 8 90 15 120 40 48
38 55 64 15 56 -20 -4 -33 -1 -42 10 -19 23 -42 19 -81 -15z"/>
<path d="M11192 8979 c-57 -10 -167 -53 -193 -75 -8 -8 -27 -14 -40 -14 -30 0
-67 -25 -56 -37 5 -4 16 -8 25 -8 30 0 24 -32 -13 -69 l-36 -37 -27 19 c-27
19 -92 37 -92 25 0 -11 35 -32 54 -33 12 0 16 -5 13 -15 -4 -8 -2 -17 3 -20 6
-4 10 -10 10 -16 0 -14 -28 -11 -33 4 -4 10 -7 10 -18 0 -7 -7 -26 -13 -41
-13 -29 0 -33 -6 -19 -29 6 -9 20 -12 40 -9 18 3 36 -1 42 -8 5 -6 18 -10 29
-7 13 4 19 -1 22 -19 5 -34 54 -32 76 4 18 30 11 48 -12 29 -17 -14 -22 -7
-25 38 -2 38 11 51 52 51 20 0 27 -5 27 -20 0 -20 11 -26 23 -13 4 3 3 11 -3
18 -5 6 -12 30 -16 53 -6 41 -6 42 32 59 22 9 43 16 47 15 18 -5 114 33 140
55 16 13 34 23 41 23 18 0 77 46 69 53 -8 9 -54 7 -121 -4z"/>
<path d="M12767 8632 c-15 -10 -30 -25 -33 -35 -5 -16 -12 -18 -41 -12 -48 9
-89 -10 -102 -46 -8 -23 -7 -29 4 -29 8 0 19 9 25 20 13 24 59 38 69 21 6 -9
19 -9 49 -2 25 5 42 5 42 0 0 -5 7 -9 15 -9 18 0 20 -31 4 -47 -9 -9 -8 -20 5
-46 18 -39 32 -47 82 -47 48 0 42 18 -11 31 -53 13 -55 34 -4 35 19 0 48 4 64
8 27 8 28 9 10 16 -17 7 -15 9 12 9 63 2 40 30 -25 31 -12 0 -26 8 -29 17 -4
10 -19 28 -34 41 -16 12 -31 32 -34 42 -8 24 -30 24 -68 2z"/>
</g>
</svg>
